<svg width="103" height="22" viewBox="0 0 103 22" fill="none" xmlns="http://www.w3.org/2000/svg">
<g filter="url(#filter0_d_1_15)">
<path d="M4.4375 2.81676V0.818182H13.0433V2.81676H9.95597V11H7.52983V2.81676H4.4375ZM16.2189 7.26705V11H14.1351V2.27273H16.1507V5.65625H16.2232C16.3709 5.25284 16.6124 4.9375 16.9476 4.71023C17.2857 4.48295 17.699 4.36932 18.1877 4.36932C18.6479 4.36932 19.0485 4.47159 19.3894 4.67614C19.7303 4.87784 19.9945 5.16335 20.182 5.53267C20.3723 5.90199 20.4661 6.33381 20.4632 6.82812V11H18.3794V7.23722C18.3823 6.87358 18.2914 6.58949 18.1067 6.38494C17.9221 6.1804 17.6621 6.07812 17.3269 6.07812C17.1081 6.07812 16.915 6.12642 16.7473 6.22301C16.5826 6.31676 16.4533 6.4517 16.3596 6.62784C16.2686 6.80398 16.2218 7.01705 16.2189 7.26705ZM24.8237 11.1236C24.139 11.1236 23.5481 10.9886 23.051 10.7188C22.5566 10.446 22.176 10.0582 21.9089 9.5554C21.6447 9.04972 21.5126 8.44886 21.5126 7.75284C21.5126 7.0767 21.6461 6.4858 21.9132 5.98011C22.1802 5.47159 22.5566 5.0767 23.0424 4.79545C23.5282 4.51136 24.1007 4.36932 24.7598 4.36932C25.2257 4.36932 25.6518 4.44176 26.0382 4.58665C26.4245 4.73153 26.7583 4.94602 27.0396 5.23011C27.3208 5.5142 27.5396 5.86506 27.6958 6.28267C27.8521 6.69744 27.9302 7.1733 27.9302 7.71023V8.23011H22.2413V7.01989H25.9913C25.9885 6.7983 25.9359 6.60085 25.8336 6.42756C25.7314 6.25426 25.5907 6.11932 25.4118 6.02273C25.2356 5.9233 25.0325 5.87358 24.8024 5.87358C24.5694 5.87358 24.3606 5.92614 24.176 6.03125C23.9913 6.13352 23.845 6.27415 23.737 6.45312C23.6291 6.62926 23.5723 6.82955 23.5666 7.05398V8.28551C23.5666 8.55256 23.6191 8.78693 23.7243 8.98864C23.8294 9.1875 23.9785 9.34233 24.1717 9.45312C24.3649 9.56392 24.595 9.61932 24.862 9.61932C25.0467 9.61932 25.2143 9.59375 25.3649 9.54261C25.5154 9.49148 25.6447 9.41619 25.7527 9.31676C25.8606 9.21733 25.9416 9.09517 25.9956 8.95028L27.9089 9.00568C27.8294 9.43466 27.6547 9.80824 27.3848 10.1264C27.1177 10.4418 26.7669 10.6875 26.3322 10.8636C25.8975 11.0369 25.3947 11.1236 24.8237 11.1236Z" fill="#FEC210"/>
<path d="M29.1046 11V0.818182H33.3105C34.0729 0.818182 34.7308 0.955729 35.2843 1.23082C35.8411 1.5026 36.2703 1.8937 36.5719 2.40412C36.8735 2.91122 37.0243 3.51278 37.0243 4.20881C37.0243 4.91477 36.8702 5.51468 36.562 6.00852C36.2537 6.49905 35.8162 6.87358 35.2495 7.1321C34.6827 7.38731 34.0115 7.51491 33.236 7.51491H30.5762V5.57599H32.7786C33.1498 5.57599 33.4597 5.52794 33.7083 5.43182C33.9602 5.33239 34.1507 5.18324 34.28 4.98438C34.4093 4.7822 34.4739 4.52367 34.4739 4.20881C34.4739 3.89394 34.4093 3.63376 34.28 3.42827C34.1507 3.21946 33.9602 3.06368 33.7083 2.96094C33.4564 2.85488 33.1465 2.80185 32.7786 2.80185H31.5655V11H29.1046ZM34.8368 6.34659L37.3723 11H34.6877L32.2019 6.34659H34.8368ZM41.3194 11.1236C40.6319 11.1236 40.041 10.983 39.5467 10.7017C39.0552 10.4176 38.676 10.0227 38.4089 9.51705C38.1447 9.00852 38.0126 8.41903 38.0126 7.74858C38.0126 7.07528 38.1447 6.4858 38.4089 5.98011C38.676 5.47159 39.0552 5.0767 39.5467 4.79545C40.041 4.51136 40.6319 4.36932 41.3194 4.36932C42.0069 4.36932 42.5964 4.51136 43.0879 4.79545C43.5822 5.0767 43.9615 5.47159 44.2257 5.98011C44.4927 6.4858 44.6262 7.07528 44.6262 7.74858C44.6262 8.41903 44.4927 9.00852 44.2257 9.51705C43.9615 10.0227 43.5822 10.4176 43.0879 10.7017C42.5964 10.983 42.0069 11.1236 41.3194 11.1236ZM41.3322 9.55114C41.5822 9.55114 41.7939 9.47443 41.9672 9.32102C42.1404 9.16761 42.2725 8.95455 42.3635 8.68182C42.4572 8.40909 42.5041 8.09375 42.5041 7.7358C42.5041 7.37216 42.4572 7.05398 42.3635 6.78125C42.2725 6.50852 42.1404 6.29545 41.9672 6.14205C41.7939 5.98864 41.5822 5.91193 41.3322 5.91193C41.0737 5.91193 40.8549 5.98864 40.676 6.14205C40.4998 6.29545 40.3649 6.50852 40.2711 6.78125C40.1802 7.05398 40.1348 7.37216 40.1348 7.7358C40.1348 8.09375 40.1802 8.40909 40.2711 8.68182C40.3649 8.95455 40.4998 9.16761 40.676 9.32102C40.8549 9.47443 41.0737 9.55114 41.3322 9.55114ZM46.7569 13.4545C46.5069 13.4545 46.2711 13.4347 46.0495 13.3949C45.8279 13.358 45.6376 13.3082 45.4785 13.2457L45.9387 11.733C46.1433 11.8011 46.3279 11.8409 46.4927 11.8523C46.6603 11.8636 46.8038 11.8366 46.9231 11.7713C47.0453 11.7088 47.139 11.5966 47.2044 11.4347L47.2853 11.2386L44.9586 4.45455H47.1404L48.3464 9.125H48.4146L49.6376 4.45455H51.8322L49.3649 11.6264C49.2456 11.9844 49.0765 12.2997 48.8578 12.5724C48.6419 12.848 48.362 13.0639 48.0183 13.2202C47.6774 13.3764 47.2569 13.4545 46.7569 13.4545ZM54.3006 11.1108C53.883 11.1108 53.5123 11.0412 53.1884 10.902C52.8674 10.7599 52.6131 10.5469 52.4256 10.2628C52.2409 9.97585 52.1486 9.61648 52.1486 9.18466C52.1486 8.82102 52.2125 8.5142 52.3404 8.2642C52.4682 8.0142 52.6444 7.81108 52.8688 7.65483C53.0932 7.49858 53.3517 7.38068 53.6444 7.30114C53.937 7.21875 54.2495 7.16335 54.5819 7.13494C54.954 7.10085 55.2537 7.06534 55.481 7.02841C55.7083 6.98864 55.873 6.93324 55.9753 6.86222C56.0804 6.78835 56.133 6.68466 56.133 6.55114V6.52983C56.133 6.31108 56.0577 6.14205 55.9071 6.02273C55.7566 5.90341 55.5534 5.84375 55.2978 5.84375C55.0222 5.84375 54.8006 5.90341 54.633 6.02273C54.4654 6.14205 54.3588 6.30682 54.3134 6.51705L52.3915 6.44886C52.4483 6.05114 52.5946 5.69602 52.8304 5.38352C53.0691 5.06818 53.3958 4.82102 53.8105 4.64205C54.2282 4.46023 54.7296 4.36932 55.3148 4.36932C55.7324 4.36932 56.1174 4.41903 56.4696 4.51847C56.8219 4.61506 57.1287 4.7571 57.3901 4.9446C57.6515 5.12926 57.8532 5.35653 57.9952 5.62642C58.1401 5.89631 58.2125 6.20455 58.2125 6.55114V11H56.2523V10.0881H56.2012C56.0847 10.3097 55.9355 10.4972 55.7537 10.6506C55.5748 10.804 55.3631 10.919 55.1188 10.9957C54.8773 11.0724 54.6046 11.1108 54.3006 11.1108ZM54.9441 9.74716C55.1685 9.74716 55.3702 9.7017 55.5492 9.6108C55.731 9.51989 55.8759 9.39489 55.9838 9.2358C56.0918 9.07386 56.1458 8.88636 56.1458 8.6733V8.05114C56.0861 8.08239 56.0137 8.1108 55.9284 8.13636C55.8461 8.16193 55.7551 8.18608 55.6557 8.20881C55.5563 8.23153 55.454 8.25142 55.3489 8.26847C55.2438 8.28551 55.1429 8.30114 55.0463 8.31534C54.8503 8.34659 54.6827 8.39489 54.5435 8.46023C54.4071 8.52557 54.302 8.6108 54.2282 8.71591C54.1571 8.81818 54.1216 8.94034 54.1216 9.08239C54.1216 9.2983 54.1983 9.46307 54.3517 9.5767C54.508 9.69034 54.7054 9.74716 54.9441 9.74716ZM61.5705 2.27273V11H59.4867V2.27273H61.5705Z" fill="black"/>
<path d="M63.0069 11V0.818182H67.2129C67.9752 0.818182 68.6331 0.955729 69.1866 1.23082C69.7434 1.5026 70.1726 1.8937 70.4743 2.40412C70.7759 2.91122 70.9267 3.51278 70.9267 4.20881C70.9267 4.91477 70.7725 5.51468 70.4643 6.00852C70.1561 6.49905 69.7186 6.87358 69.1518 7.1321C68.5851 7.38731 67.9139 7.51491 67.1383 7.51491H64.4785V5.57599H66.6809C67.0521 5.57599 67.362 5.52794 67.6106 5.43182C67.8625 5.33239 68.0531 5.18324 68.1824 4.98438C68.3116 4.7822 68.3762 4.52367 68.3762 4.20881C68.3762 3.89394 68.3116 3.63376 68.1824 3.42827C68.0531 3.21946 67.8625 3.06368 67.6106 2.96094C67.3587 2.85488 67.0488 2.80185 66.6809 2.80185H65.4679V11H63.0069ZM68.7392 6.34659L71.2747 11H68.59L66.1042 6.34659H68.7392ZM75.2218 11.1236C74.5343 11.1236 73.9434 10.983 73.449 10.7017C72.9576 10.4176 72.5783 10.0227 72.3113 9.51705C72.0471 9.00852 71.915 8.41903 71.915 7.74858C71.915 7.07528 72.0471 6.4858 72.3113 5.98011C72.5783 5.47159 72.9576 5.0767 73.449 4.79545C73.9434 4.51136 74.5343 4.36932 75.2218 4.36932C75.9093 4.36932 76.4988 4.51136 76.9902 4.79545C77.4846 5.0767 77.8638 5.47159 78.128 5.98011C78.3951 6.4858 78.5286 7.07528 78.5286 7.74858C78.5286 8.41903 78.3951 9.00852 78.128 9.51705C77.8638 10.0227 77.4846 10.4176 76.9902 10.7017C76.4988 10.983 75.9093 11.1236 75.2218 11.1236ZM75.2346 9.55114C75.4846 9.55114 75.6962 9.47443 75.8695 9.32102C76.0428 9.16761 76.1749 8.95455 76.2658 8.68182C76.3596 8.40909 76.4064 8.09375 76.4064 7.7358C76.4064 7.37216 76.3596 7.05398 76.2658 6.78125C76.1749 6.50852 76.0428 6.29545 75.8695 6.14205C75.6962 5.98864 75.4846 5.91193 75.2346 5.91193C74.976 5.91193 74.7573 5.98864 74.5783 6.14205C74.4022 6.29545 74.2672 6.50852 74.1735 6.78125C74.0826 7.05398 74.0371 7.37216 74.0371 7.7358C74.0371 8.09375 74.0826 8.40909 74.1735 8.68182C74.2672 8.95455 74.4022 9.16761 74.5783 9.32102C74.7573 9.47443 74.976 9.55114 75.2346 9.55114ZM83.8191 8.17472V4.45455H85.8986V11H83.9128V9.78125H83.8446C83.6998 10.1818 83.4526 10.5 83.1032 10.7358C82.7566 10.9687 82.3375 11.0852 81.8461 11.0852C81.4 11.0852 81.008 10.983 80.6699 10.7784C80.3319 10.5739 80.0691 10.2884 79.8816 9.92188C79.6941 9.55256 79.5989 9.12074 79.5961 8.62642V4.45455H81.6799V8.21733C81.6827 8.57244 81.7765 8.85227 81.9611 9.05682C82.1458 9.26136 82.3972 9.36364 82.7154 9.36364C82.9228 9.36364 83.1088 9.31818 83.2736 9.22727C83.4412 9.13352 83.5733 8.99858 83.6699 8.82244C83.7694 8.64347 83.8191 8.42756 83.8191 8.17472ZM90.9196 4.45455V5.98864H86.7903V4.45455H90.9196ZM87.6554 2.88636H89.7392V8.94176C89.7392 9.0696 89.7591 9.1733 89.7988 9.25284C89.8414 9.32955 89.9025 9.38494 89.9821 9.41903C90.0616 9.45028 90.1568 9.46591 90.2676 9.46591C90.3471 9.46591 90.4309 9.45881 90.519 9.4446C90.6099 9.42756 90.6781 9.41335 90.7235 9.40199L91.0389 10.9062C90.9395 10.9347 90.7988 10.9702 90.617 11.0128C90.438 11.0554 90.2235 11.0824 89.9735 11.0938C89.4849 11.1165 89.0659 11.0597 88.7164 10.9233C88.3699 10.7841 88.1042 10.5682 87.9196 10.2756C87.7377 9.98295 87.6497 9.61506 87.6554 9.17188V2.88636ZM94.9721 11.1236C94.2875 11.1236 93.6966 10.9886 93.1994 10.7188C92.7051 10.446 92.3244 10.0582 92.0574 9.5554C91.7931 9.04972 91.661 8.44886 91.661 7.75284C91.661 7.0767 91.7946 6.4858 92.0616 5.98011C92.3287 5.47159 92.7051 5.0767 93.1909 4.79545C93.6767 4.51136 94.2491 4.36932 94.9082 4.36932C95.3741 4.36932 95.8002 4.44176 96.1866 4.58665C96.573 4.73153 96.9068 4.94602 97.188 5.23011C97.4693 5.5142 97.688 5.86506 97.8443 6.28267C98.0005 6.69744 98.0787 7.1733 98.0787 7.71023V8.23011H92.3897V7.01989H96.1397C96.1369 6.7983 96.0843 6.60085 95.9821 6.42756C95.8798 6.25426 95.7392 6.11932 95.5602 6.02273C95.3841 5.9233 95.1809 5.87358 94.9508 5.87358C94.7179 5.87358 94.5091 5.92614 94.3244 6.03125C94.1397 6.13352 93.9934 6.27415 93.8855 6.45312C93.7775 6.62926 93.7207 6.82955 93.715 7.05398V8.28551C93.715 8.55256 93.7676 8.78693 93.8727 8.98864C93.9778 9.1875 94.127 9.34233 94.3201 9.45312C94.5133 9.56392 94.7434 9.61932 95.0105 9.61932C95.1951 9.61932 95.3627 9.59375 95.5133 9.54261C95.6639 9.49148 95.7931 9.41619 95.9011 9.31676C96.0091 9.21733 96.09 9.09517 96.144 8.95028L98.0574 9.00568C97.9778 9.43466 97.8031 9.80824 97.5332 10.1264C97.2662 10.4418 96.9153 10.6875 96.4806 10.8636C96.046 11.0369 95.5431 11.1236 94.9721 11.1236Z" fill="black"/>
<path d="M63.0069 11V0.818182H67.2129C67.9752 0.818182 68.6331 0.955729 69.1866 1.23082C69.7434 1.5026 70.1726 1.8937 70.4743 2.40412C70.7759 2.91122 70.9267 3.51278 70.9267 4.20881C70.9267 4.91477 70.7725 5.51468 70.4643 6.00852C70.1561 6.49905 69.7186 6.87358 69.1518 7.1321C68.5851 7.38731 67.9139 7.51491 67.1383 7.51491H64.4785V5.57599H66.6809C67.0521 5.57599 67.362 5.52794 67.6106 5.43182C67.8625 5.33239 68.0531 5.18324 68.1824 4.98438C68.3116 4.7822 68.3762 4.52367 68.3762 4.20881C68.3762 3.89394 68.3116 3.63376 68.1824 3.42827C68.0531 3.21946 67.8625 3.06368 67.6106 2.96094C67.3587 2.85488 67.0488 2.80185 66.6809 2.80185H65.4679V11H63.0069ZM68.7392 6.34659L71.2747 11H68.59L66.1042 6.34659H68.7392ZM75.2218 11.1236C74.5343 11.1236 73.9434 10.983 73.449 10.7017C72.9576 10.4176 72.5783 10.0227 72.3113 9.51705C72.0471 9.00852 71.915 8.41903 71.915 7.74858C71.915 7.07528 72.0471 6.4858 72.3113 5.98011C72.5783 5.47159 72.9576 5.0767 73.449 4.79545C73.9434 4.51136 74.5343 4.36932 75.2218 4.36932C75.9093 4.36932 76.4988 4.51136 76.9902 4.79545C77.4846 5.0767 77.8638 5.47159 78.128 5.98011C78.3951 6.4858 78.5286 7.07528 78.5286 7.74858C78.5286 8.41903 78.3951 9.00852 78.128 9.51705C77.8638 10.0227 77.4846 10.4176 76.9902 10.7017C76.4988 10.983 75.9093 11.1236 75.2218 11.1236ZM75.2346 9.55114C75.4846 9.55114 75.6962 9.47443 75.8695 9.32102C76.0428 9.16761 76.1749 8.95455 76.2658 8.68182C76.3596 8.40909 76.4064 8.09375 76.4064 7.7358C76.4064 7.37216 76.3596 7.05398 76.2658 6.78125C76.1749 6.50852 76.0428 6.29545 75.8695 6.14205C75.6962 5.98864 75.4846 5.91193 75.2346 5.91193C74.976 5.91193 74.7573 5.98864 74.5783 6.14205C74.4022 6.29545 74.2672 6.50852 74.1735 6.78125C74.0826 7.05398 74.0371 7.37216 74.0371 7.7358C74.0371 8.09375 74.0826 8.40909 74.1735 8.68182C74.2672 8.95455 74.4022 9.16761 74.5783 9.32102C74.7573 9.47443 74.976 9.55114 75.2346 9.55114ZM83.8191 8.17472V4.45455H85.8986V11H83.9128V9.78125H83.8446C83.6998 10.1818 83.4526 10.5 83.1032 10.7358C82.7566 10.9687 82.3375 11.0852 81.8461 11.0852C81.4 11.0852 81.008 10.983 80.6699 10.7784C80.3319 10.5739 80.0691 10.2884 79.8816 9.92188C79.6941 9.55256 79.5989 9.12074 79.5961 8.62642V4.45455H81.6799V8.21733C81.6827 8.57244 81.7765 8.85227 81.9611 9.05682C82.1458 9.26136 82.3972 9.36364 82.7154 9.36364C82.9228 9.36364 83.1088 9.31818 83.2736 9.22727C83.4412 9.13352 83.5733 8.99858 83.6699 8.82244C83.7694 8.64347 83.8191 8.42756 83.8191 8.17472ZM90.9196 4.45455V5.98864H86.7903V4.45455H90.9196ZM87.6554 2.88636H89.7392V8.94176C89.7392 9.0696 89.7591 9.1733 89.7988 9.25284C89.8414 9.32955 89.9025 9.38494 89.9821 9.41903C90.0616 9.45028 90.1568 9.46591 90.2676 9.46591C90.3471 9.46591 90.4309 9.45881 90.519 9.4446C90.6099 9.42756 90.6781 9.41335 90.7235 9.40199L91.0389 10.9062C90.9395 10.9347 90.7988 10.9702 90.617 11.0128C90.438 11.0554 90.2235 11.0824 89.9735 11.0938C89.4849 11.1165 89.0659 11.0597 88.7164 10.9233C88.3699 10.7841 88.1042 10.5682 87.9196 10.2756C87.7377 9.98295 87.6497 9.61506 87.6554 9.17188V2.88636ZM94.9721 11.1236C94.2875 11.1236 93.6966 10.9886 93.1994 10.7188C92.7051 10.446 92.3244 10.0582 92.0574 9.5554C91.7931 9.04972 91.661 8.44886 91.661 7.75284C91.661 7.0767 91.7946 6.4858 92.0616 5.98011C92.3287 5.47159 92.7051 5.0767 93.1909 4.79545C93.6767 4.51136 94.2491 4.36932 94.9082 4.36932C95.3741 4.36932 95.8002 4.44176 96.1866 4.58665C96.573 4.73153 96.9068 4.94602 97.188 5.23011C97.4693 5.5142 97.688 5.86506 97.8443 6.28267C98.0005 6.69744 98.0787 7.1733 98.0787 7.71023V8.23011H92.3897V7.01989H96.1397C96.1369 6.7983 96.0843 6.60085 95.9821 6.42756C95.8798 6.25426 95.7392 6.11932 95.5602 6.02273C95.3841 5.9233 95.1809 5.87358 94.9508 5.87358C94.7179 5.87358 94.5091 5.92614 94.3244 6.03125C94.1397 6.13352 93.9934 6.27415 93.8855 6.45312C93.7775 6.62926 93.7207 6.82955 93.715 7.05398V8.28551C93.715 8.55256 93.7676 8.78693 93.8727 8.98864C93.9778 9.1875 94.127 9.34233 94.3201 9.45312C94.5133 9.56392 94.7434 9.61932 95.0105 9.61932C95.1951 9.61932 95.3627 9.59375 95.5133 9.54261C95.6639 9.49148 95.7931 9.41619 95.9011 9.31676C96.0091 9.21733 96.09 9.09517 96.144 8.95028L98.0574 9.00568C97.9778 9.43466 97.8031 9.80824 97.5332 10.1264C97.2662 10.4418 96.9153 10.6875 96.4806 10.8636C96.046 11.0369 95.5431 11.1236 94.9721 11.1236Z" fill="black" fill-opacity="0.2"/>
<path d="M63.0069 11V0.818182H67.2129C67.9752 0.818182 68.6331 0.955729 69.1866 1.23082C69.7434 1.5026 70.1726 1.8937 70.4743 2.40412C70.7759 2.91122 70.9267 3.51278 70.9267 4.20881C70.9267 4.91477 70.7725 5.51468 70.4643 6.00852C70.1561 6.49905 69.7186 6.87358 69.1518 7.1321C68.5851 7.38731 67.9139 7.51491 67.1383 7.51491H64.4785V5.57599H66.6809C67.0521 5.57599 67.362 5.52794 67.6106 5.43182C67.8625 5.33239 68.0531 5.18324 68.1824 4.98438C68.3116 4.7822 68.3762 4.52367 68.3762 4.20881C68.3762 3.89394 68.3116 3.63376 68.1824 3.42827C68.0531 3.21946 67.8625 3.06368 67.6106 2.96094C67.3587 2.85488 67.0488 2.80185 66.6809 2.80185H65.4679V11H63.0069ZM68.7392 6.34659L71.2747 11H68.59L66.1042 6.34659H68.7392ZM75.2218 11.1236C74.5343 11.1236 73.9434 10.983 73.449 10.7017C72.9576 10.4176 72.5783 10.0227 72.3113 9.51705C72.0471 9.00852 71.915 8.41903 71.915 7.74858C71.915 7.07528 72.0471 6.4858 72.3113 5.98011C72.5783 5.47159 72.9576 5.0767 73.449 4.79545C73.9434 4.51136 74.5343 4.36932 75.2218 4.36932C75.9093 4.36932 76.4988 4.51136 76.9902 4.79545C77.4846 5.0767 77.8638 5.47159 78.128 5.98011C78.3951 6.4858 78.5286 7.07528 78.5286 7.74858C78.5286 8.41903 78.3951 9.00852 78.128 9.51705C77.8638 10.0227 77.4846 10.4176 76.9902 10.7017C76.4988 10.983 75.9093 11.1236 75.2218 11.1236ZM75.2346 9.55114C75.4846 9.55114 75.6962 9.47443 75.8695 9.32102C76.0428 9.16761 76.1749 8.95455 76.2658 8.68182C76.3596 8.40909 76.4064 8.09375 76.4064 7.7358C76.4064 7.37216 76.3596 7.05398 76.2658 6.78125C76.1749 6.50852 76.0428 6.29545 75.8695 6.14205C75.6962 5.98864 75.4846 5.91193 75.2346 5.91193C74.976 5.91193 74.7573 5.98864 74.5783 6.14205C74.4022 6.29545 74.2672 6.50852 74.1735 6.78125C74.0826 7.05398 74.0371 7.37216 74.0371 7.7358C74.0371 8.09375 74.0826 8.40909 74.1735 8.68182C74.2672 8.95455 74.4022 9.16761 74.5783 9.32102C74.7573 9.47443 74.976 9.55114 75.2346 9.55114ZM83.8191 8.17472V4.45455H85.8986V11H83.9128V9.78125H83.8446C83.6998 10.1818 83.4526 10.5 83.1032 10.7358C82.7566 10.9687 82.3375 11.0852 81.8461 11.0852C81.4 11.0852 81.008 10.983 80.6699 10.7784C80.3319 10.5739 80.0691 10.2884 79.8816 9.92188C79.6941 9.55256 79.5989 9.12074 79.5961 8.62642V4.45455H81.6799V8.21733C81.6827 8.57244 81.7765 8.85227 81.9611 9.05682C82.1458 9.26136 82.3972 9.36364 82.7154 9.36364C82.9228 9.36364 83.1088 9.31818 83.2736 9.22727C83.4412 9.13352 83.5733 8.99858 83.6699 8.82244C83.7694 8.64347 83.8191 8.42756 83.8191 8.17472ZM90.9196 4.45455V5.98864H86.7903V4.45455H90.9196ZM87.6554 2.88636H89.7392V8.94176C89.7392 9.0696 89.7591 9.1733 89.7988 9.25284C89.8414 9.32955 89.9025 9.38494 89.9821 9.41903C90.0616 9.45028 90.1568 9.46591 90.2676 9.46591C90.3471 9.46591 90.4309 9.45881 90.519 9.4446C90.6099 9.42756 90.6781 9.41335 90.7235 9.40199L91.0389 10.9062C90.9395 10.9347 90.7988 10.9702 90.617 11.0128C90.438 11.0554 90.2235 11.0824 89.9735 11.0938C89.4849 11.1165 89.0659 11.0597 88.7164 10.9233C88.3699 10.7841 88.1042 10.5682 87.9196 10.2756C87.7377 9.98295 87.6497 9.61506 87.6554 9.17188V2.88636ZM94.9721 11.1236C94.2875 11.1236 93.6966 10.9886 93.1994 10.7188C92.7051 10.446 92.3244 10.0582 92.0574 9.5554C91.7931 9.04972 91.661 8.44886 91.661 7.75284C91.661 7.0767 91.7946 6.4858 92.0616 5.98011C92.3287 5.47159 92.7051 5.0767 93.1909 4.79545C93.6767 4.51136 94.2491 4.36932 94.9082 4.36932C95.3741 4.36932 95.8002 4.44176 96.1866 4.58665C96.573 4.73153 96.9068 4.94602 97.188 5.23011C97.4693 5.5142 97.688 5.86506 97.8443 6.28267C98.0005 6.69744 98.0787 7.1733 98.0787 7.71023V8.23011H92.3897V7.01989H96.1397C96.1369 6.7983 96.0843 6.60085 95.9821 6.42756C95.8798 6.25426 95.7392 6.11932 95.5602 6.02273C95.3841 5.9233 95.1809 5.87358 94.9508 5.87358C94.7179 5.87358 94.5091 5.92614 94.3244 6.03125C94.1397 6.13352 93.9934 6.27415 93.8855 6.45312C93.7775 6.62926 93.7207 6.82955 93.715 7.05398V8.28551C93.715 8.55256 93.7676 8.78693 93.8727 8.98864C93.9778 9.1875 94.127 9.34233 94.3201 9.45312C94.5133 9.56392 94.7434 9.61932 95.0105 9.61932C95.1951 9.61932 95.3627 9.59375 95.5133 9.54261C95.6639 9.49148 95.7931 9.41619 95.9011 9.31676C96.0091 9.21733 96.09 9.09517 96.144 8.95028L98.0574 9.00568C97.9778 9.43466 97.8031 9.80824 97.5332 10.1264C97.2662 10.4418 96.9153 10.6875 96.4806 10.8636C96.046 11.0369 95.5431 11.1236 94.9721 11.1236Z" fill="#017F03"/>
</g>
<defs>
<filter id="filter0_d_1_15" x="0.4375" y="0.818176" width="101.641" height="20.6364" filterUnits="userSpaceOnUse" color-interpolation-filters="sRGB">
<feFlood flood-opacity="0" result="BackgroundImageFix"/>
<feColorMatrix in="SourceAlpha" type="matrix" values="0 0 0 0 0 0 0 0 0 0 0 0 0 0 0 0 0 0 127 0" result="hardAlpha"/>
<feOffset dy="4"/>
<feGaussianBlur stdDeviation="2"/>
<feComposite in2="hardAlpha" operator="out"/>
<feColorMatrix type="matrix" values="0 0 0 0 0 0 0 0 0 0 0 0 0 0 0 0 0 0 0.25 0"/>
<feBlend mode="normal" in2="BackgroundImageFix" result="effect1_dropShadow_1_15"/>
<feBlend mode="normal" in="SourceGraphic" in2="effect1_dropShadow_1_15" result="shape"/>
</filter>
</defs>
</svg>
