<svg width="73" height="48" viewBox="0 0 73 48" fill="none" xmlns="http://www.w3.org/2000/svg">
<path d="M27.8864 35.1818C27.0455 35.1818 26.3201 34.9962 25.7102 34.625C25.1042 34.25 24.6364 33.7273 24.3068 33.0568C23.9811 32.3826 23.8182 31.5985 23.8182 30.7045C23.8182 29.8106 23.9811 29.0227 24.3068 28.3409C24.6364 27.6553 25.0947 27.1212 25.6818 26.7386C26.2727 26.3523 26.9621 26.1591 27.75 26.1591C28.2045 26.1591 28.6534 26.2348 29.0966 26.3864C29.5398 26.5379 29.9432 26.7841 30.3068 27.125C30.6705 27.4621 30.9602 27.9091 31.1761 28.4659C31.392 29.0227 31.5 29.7083 31.5 30.5227V31.0909H24.7727V29.9318H30.1364C30.1364 29.4394 30.0379 29 29.8409 28.6136C29.6477 28.2273 29.3712 27.9223 29.0114 27.6989C28.6553 27.4754 28.2348 27.3636 27.75 27.3636C27.2159 27.3636 26.7538 27.4962 26.3636 27.7614C25.9773 28.0227 25.6799 28.3636 25.4716 28.7841C25.2633 29.2045 25.1591 29.6553 25.1591 30.1364V30.9091C25.1591 31.5682 25.2727 32.1269 25.5 32.5852C25.7311 33.0398 26.0511 33.3864 26.4602 33.625C26.8693 33.8598 27.3447 33.9773 27.8864 33.9773C28.2386 33.9773 28.5568 33.928 28.8409 33.8295C29.1288 33.7273 29.3769 33.5758 29.5852 33.375C29.7936 33.1705 29.9545 32.9167 30.0682 32.6136L31.3636 32.9773C31.2273 33.4167 30.9981 33.803 30.6761 34.1364C30.3542 34.4659 29.9564 34.7235 29.483 34.9091C29.0095 35.0909 28.4773 35.1818 27.8864 35.1818ZM35.4598 35V26.2727H36.7552V27.5909H36.8461C37.0052 27.1591 37.2931 26.8087 37.7098 26.5398C38.1264 26.2708 38.5961 26.1364 39.1189 26.1364C39.2173 26.1364 39.3405 26.1383 39.4882 26.142C39.6359 26.1458 39.7477 26.1515 39.8234 26.1591V27.5227C39.778 27.5114 39.6738 27.4943 39.5109 27.4716C39.3518 27.4451 39.1833 27.4318 39.0052 27.4318C38.581 27.4318 38.2022 27.5208 37.8689 27.6989C37.5393 27.8731 37.278 28.1155 37.0848 28.4261C36.8954 28.733 36.8007 29.0833 36.8007 29.4773V35H35.4598ZM46.6127 35.1818C45.7945 35.1818 45.09 34.9886 44.4991 34.6023C43.9082 34.2159 43.4536 33.6837 43.1355 33.0057C42.8173 32.3277 42.6582 31.553 42.6582 30.6818C42.6582 29.7955 42.8211 29.0133 43.1468 28.3352C43.4764 27.6534 43.9347 27.1212 44.5218 26.7386C45.1127 26.3523 45.8021 26.1591 46.59 26.1591C47.2036 26.1591 47.7567 26.2727 48.2491 26.5C48.7415 26.7273 49.1449 27.0455 49.4593 27.4545C49.7737 27.8636 49.9688 28.3409 50.0445 28.8864H48.7036C48.6014 28.4886 48.3741 28.1364 48.0218 27.8295C47.6733 27.5189 47.2036 27.3636 46.6127 27.3636C46.09 27.3636 45.6317 27.5 45.2377 27.7727C44.8476 28.0417 44.5427 28.4223 44.323 28.9148C44.107 29.4034 43.9991 29.9773 43.9991 30.6364C43.9991 31.3106 44.1052 31.8977 44.3173 32.3977C44.5332 32.8977 44.8362 33.286 45.2264 33.5625C45.6203 33.839 46.0824 33.9773 46.6127 33.9773C46.9612 33.9773 47.2775 33.9167 47.5616 33.7955C47.8457 33.6742 48.0862 33.5 48.2832 33.2727C48.4802 33.0455 48.6203 32.7727 48.7036 32.4545H50.0445C49.9688 32.9697 49.7813 33.4337 49.482 33.8466C49.1866 34.2557 48.7945 34.5814 48.3059 34.8239C47.8211 35.0625 47.2567 35.1818 46.6127 35.1818ZM55.2657 29.75V35H53.9248V23.3636H55.2657V27.6364H55.3793C55.5839 27.1856 55.8907 26.8277 56.2998 26.5625C56.7127 26.2936 57.2619 26.1591 57.9475 26.1591C58.5422 26.1591 59.063 26.2784 59.51 26.517C59.957 26.7519 60.3036 27.1136 60.5498 27.6023C60.7998 28.0871 60.9248 28.7045 60.9248 29.4545V35H59.5839V29.5455C59.5839 28.8523 59.4039 28.3163 59.0441 27.9375C58.688 27.5549 58.1937 27.3636 57.5611 27.3636C57.1217 27.3636 56.7278 27.4564 56.3793 27.642C56.0346 27.8277 55.7619 28.0985 55.5611 28.4545C55.3642 28.8106 55.2657 29.2424 55.2657 29.75Z" fill="black"/>
<path d="M27.7727 22.1818C26.9848 22.1818 26.2936 21.9943 25.6989 21.6193C25.108 21.2443 24.6458 20.7197 24.3125 20.0455C23.983 19.3712 23.8182 18.5833 23.8182 17.6818C23.8182 16.7727 23.983 15.9792 24.3125 15.3011C24.6458 14.6231 25.108 14.0966 25.6989 13.7216C26.2936 13.3466 26.9848 13.1591 27.7727 13.1591C28.5606 13.1591 29.25 13.3466 29.8409 13.7216C30.4356 14.0966 30.8977 14.6231 31.2273 15.3011C31.5606 15.9792 31.7273 16.7727 31.7273 17.6818C31.7273 18.5833 31.5606 19.3712 31.2273 20.0455C30.8977 20.7197 30.4356 21.2443 29.8409 21.6193C29.25 21.9943 28.5606 22.1818 27.7727 22.1818ZM27.7727 20.9773C28.3712 20.9773 28.8636 20.8239 29.25 20.517C29.6364 20.2102 29.9223 19.8068 30.108 19.3068C30.2936 18.8068 30.3864 18.2652 30.3864 17.6818C30.3864 17.0985 30.2936 16.5549 30.108 16.0511C29.9223 15.5473 29.6364 15.1402 29.25 14.8295C28.8636 14.5189 28.3712 14.3636 27.7727 14.3636C27.1742 14.3636 26.6818 14.5189 26.2955 14.8295C25.9091 15.1402 25.6231 15.5473 25.4375 16.0511C25.2519 16.5549 25.1591 17.0985 25.1591 17.6818C25.1591 18.2652 25.2519 18.8068 25.4375 19.3068C25.6231 19.8068 25.9091 20.2102 26.2955 20.517C26.6818 20.8239 27.1742 20.9773 27.7727 20.9773ZM41.876 15.2273L40.6714 15.5682C40.5957 15.3674 40.4839 15.1723 40.3362 14.983C40.1923 14.7898 39.9953 14.6307 39.7453 14.5057C39.4953 14.3807 39.1752 14.3182 38.7851 14.3182C38.251 14.3182 37.8059 14.4413 37.4498 14.6875C37.0976 14.9299 36.9214 15.2386 36.9214 15.6136C36.9214 15.947 37.0426 16.2102 37.2851 16.4034C37.5275 16.5966 37.9063 16.7576 38.4214 16.8864L39.7169 17.2045C40.4972 17.3939 41.0786 17.6837 41.4612 18.0739C41.8438 18.4602 42.0351 18.9583 42.0351 19.5682C42.0351 20.0682 41.8911 20.5152 41.6032 20.9091C41.3191 21.303 40.9214 21.6136 40.4101 21.8409C39.8987 22.0682 39.304 22.1818 38.626 22.1818C37.7358 22.1818 36.9991 21.9886 36.4157 21.6023C35.8324 21.2159 35.4631 20.6515 35.3078 19.9091L36.5805 19.5909C36.7017 20.0606 36.9309 20.4129 37.268 20.6477C37.6089 20.8826 38.054 21 38.6032 21C39.2282 21 39.7245 20.8674 40.0919 20.6023C40.4631 20.3333 40.6487 20.0114 40.6487 19.6364C40.6487 19.3333 40.5426 19.0795 40.3305 18.875C40.1184 18.6667 39.7926 18.5114 39.3532 18.4091L37.8987 18.0682C37.0995 17.8788 36.5123 17.5852 36.1373 17.1875C35.7661 16.786 35.5805 16.2841 35.5805 15.6818C35.5805 15.1894 35.7188 14.7538 35.9953 14.375C36.2756 13.9962 36.6563 13.6989 37.1373 13.483C37.6222 13.267 38.1714 13.1591 38.7851 13.1591C39.6487 13.1591 40.3267 13.3485 40.8191 13.7273C41.3154 14.1061 41.6676 14.6061 41.876 15.2273ZM47.3144 16.75V22H45.9735V10.3636H47.3144V14.6364H47.4281C47.6326 14.1856 47.9394 13.8277 48.3485 13.5625C48.7614 13.2936 49.3106 13.1591 49.9963 13.1591C50.5909 13.1591 51.1118 13.2784 51.5588 13.517C52.0057 13.7519 52.3523 14.1136 52.5985 14.6023C52.8485 15.0871 52.9735 15.7045 52.9735 16.4545V22H51.6326V16.5455C51.6326 15.8523 51.4527 15.3163 51.0928 14.9375C50.7368 14.5549 50.2425 14.3636 49.6099 14.3636C49.1705 14.3636 48.7766 14.4564 48.4281 14.642C48.0834 14.8277 47.8106 15.0985 47.6099 15.4545C47.4129 15.8106 47.3144 16.2424 47.3144 16.75Z" fill="black"/>
<path d="M2.27557 35V8.81818H12.6051C14.5909 8.81818 16.2827 9.19744 17.6804 9.95597C19.0781 10.706 20.1435 11.75 20.8764 13.0881C21.6179 14.4176 21.9886 15.9517 21.9886 17.6903C21.9886 19.429 21.6136 20.9631 20.8636 22.2926C20.1136 23.6222 19.027 24.6577 17.6037 25.3991C16.1889 26.1406 14.4759 26.5114 12.4645 26.5114H5.88068V22.0753H11.5696C12.6349 22.0753 13.5128 21.892 14.2031 21.5256C14.902 21.1506 15.4219 20.6349 15.7628 19.9787C16.1122 19.3139 16.2869 18.5511 16.2869 17.6903C16.2869 16.821 16.1122 16.0625 15.7628 15.4148C15.4219 14.7585 14.902 14.2514 14.2031 13.8935C13.5043 13.527 12.6179 13.3438 11.544 13.3438H7.81108V35H2.27557Z" fill="#FF7A00"/>
</svg>
