<svg xmlns="http://www.w3.org/2000/svg" enable-background="new 0 0 600 600" viewBox="0 0 600 600"><path fill="#f7f5ff" d="M240.165 494.724c0 5.93-39.405 10.74-88.013 10.74-48.613 0-88.018-4.81-88.018-10.74 0-5.93 39.405-10.74 88.018-10.74 48.608 0 88.013 4.81 88.013 10.74z" class="colorf7f5ff svgShape"/><path fill="#edebff" d="M108.02 227.295c-8.31-1.35-17.34-4.49-21.12-12.05-4.38-8.79.71-19.81 8.39-25.97 12.82-10.42 27.886-9.909 47.31-27.91 15.854-14.706 15.799-24.057 24.65-29.97 6.685-4.739 14.207-8.582 22.39-8.15 13.57.71 24.23 13.72 25.78 27.2 4.113 36.845-47.717 86.467-107.4 76.85zM524.91 249.995c-3.86 2.19-8.64 1.63-12.97.76-31.11-6.25-59.03-26.85-74.23-54.7-3.5-6.4-6.4-13.68-4.93-20.8 1.2-5.81 5.13-10.66 9.67-14.44 4.09-3.46 10.34-8.15 15.87-8.83 5.33-.68 10.3 3.98 14.56 6.68 4.22 2.71 8.4 5.49 12.48 8.4.8.56 1.58 1.13 2.37 1.71 3.3 2.41 6.53 4.93 9.65 7.57 2.6 2.19 5.13 4.48 7.56 6.87 6.55 6.41 12.44 13.71 16.99 21.66 2.08 3.63 3.88 7.39 5.35 11.27.35.94.69 1.89 1 2.84 1.33 4.02 2.3 8.16 2.83 12.4.88 6.92-.16 15.23-6.2 18.61zM424.203 170.673c-1.054-16.893-3.017-33.424-11.623-47.402-10.621-17.255-29.86-26.77-49.83-28.455-.982 18.215-.197 34.602 7.48 48.85 6.633 12.315 18.628 21.924 32.1 25.705 7.037 1.974 14.569 2.387 21.873 1.302z" class="coloredebff svgShape"/><path fill="#ffffff" d="M512.87 348.705c-18.64 4.19-30.4 22.76-26.21 41.4 2.21 9.84 8.43 17.76 16.54 22.41 1.7-.72 3.38-1.49 5.05-2.31-8.48-3.75-15.15-11.33-17.34-21.05-3.66-16.3 6.62-32.54 22.92-36.2 14.51-3.26 28.97 4.54 34.55 17.78a86.14 86.14 0 0 0 2.28-5.23c-7.31-12.98-22.53-20.23-37.79-16.8z" class="colorfff svgShape"/><path fill="#ffffff" d="M539.87 384.715c-5.01 6.65-11 12.54-17.62 17.23-9.63.91-18.65-5.47-20.83-15.15-2.36-10.52 4.25-20.97 14.77-23.33 10.52-2.37 20.96 4.24 23.33 14.76.49 2.19.59 4.38.35 6.49z" class="colorfff svgShape"/><path fill="#edebff" d="M55.779 381.898c9.94 16.862 24.569 29.787 41.39 39.334 9.341-9.413 16.774-23.79 12.707-36.069-6.137-18.523-32.664-22.7-43.507-41.07-6.415-10.879-5.818-23.803-6.313-36.44-.196-4.597-.734-8.72-1.612-12.357-18.08 23.33-18.111 60.297-2.665 86.602z" class="coloredebff svgShape"/><path fill="#ffffff" d="M527.28 216.145c-17.53 14.47-44.634 5.424-49.69-17.09-2.6-11.56 1.69-23.09 10.14-30.28-.79-.58-1.57-1.15-2.37-1.71-8.88 7.88-13.33 20.23-10.54 32.62 5.433 24.2 34.217 34.206 53.46 19.3-.31-.95-.65-1.9-1-2.84z" class="colorfff svgShape"/><path fill="#ffffff" d="M521.93 204.875a18.894 18.894 0 0 1-10.06 5.94c-10.23 2.3-20.39-4.13-22.69-14.36-1.79-7.98 1.72-15.91 8.2-20.11 2.6 2.19 5.13 4.48 7.56 6.87 6.55 6.41 12.44 13.71 16.99 21.66z" class="colorfff svgShape"/><path fill="#edebff" d="M108.02 227.295c-8.31-1.35-17.34-4.49-21.12-12.05-4.38-8.79.71-19.81 8.39-25.97 12.82-10.42 27.886-9.909 47.31-27.91 15.854-14.706 15.799-24.057 24.65-29.97 6.685-4.739 14.207-8.582 22.39-8.15 13.57.71 24.23 13.72 25.78 27.2 4.113 36.845-47.717 86.467-107.4 76.85zM524.91 249.995c-3.86 2.19-8.64 1.63-12.97.76-31.11-6.25-59.03-26.85-74.23-54.7-3.5-6.4-6.4-13.68-4.93-20.8 1.2-5.81 5.13-10.66 9.67-14.44 4.09-3.46 10.34-8.15 15.87-8.83 5.33-.68 10.3 3.98 14.56 6.68 4.22 2.71 8.4 5.49 12.48 8.4.8.56 1.58 1.13 2.37 1.71 3.3 2.41 6.53 4.93 9.65 7.57 2.6 2.19 5.13 4.48 7.56 6.87 6.55 6.41 12.44 13.71 16.99 21.66 2.08 3.63 3.88 7.39 5.35 11.27.35.94.69 1.89 1 2.84 1.33 4.02 2.3 8.16 2.83 12.4.88 6.92-.16 15.23-6.2 18.61zM424.203 170.673c-1.054-16.893-3.017-33.424-11.623-47.402-10.621-17.255-29.86-26.77-49.83-28.455-.982 18.215-.197 34.602 7.48 48.85 6.633 12.315 18.628 21.924 32.1 25.705 7.037 1.974 14.569 2.387 21.873 1.302zM359.524 423.786h-132.92c6.694-8.644 12.268-18.64 19.8-26.25 13.67-13.762 30.241-16.144 42.01-10.26 10.044 5.001 16.823 16.09 28.01 21.04 12.218 5.38 20.237.525 27.42.91 5.78.3 14.132 5.84 15.68 14.56z" class="coloredebff svgShape"/><path fill="#edebff" d="M550.664 365.506c-.7 1.76-1.46 3.51-2.28 5.23a82.59 82.59 0 0 1-8.51 13.98c-5.01 6.65-11 12.54-17.62 17.23-.19.14-.38.27-.57.4-4.3 3-8.79 5.6-13.43 7.86a99.42 99.42 0 0 1-5.05 2.31c-14.64 6.27-30.57 9.48-46.67 11.27h-91.94c-1.567-11.244-10.745-19.04-20.49-19.55-8.456-.454-14.927 4.268-25.66-.5-10.19-4.502-16.894-15.487-27.8-20.94-13.798-6.871-32.703-4.006-47.79 11.22-5.14 5.19-9.32 11.27-13.36 17.15-3.06 4.44-6.02 8.74-9.31 12.62h-116.89c10.058-10.917 17.072-26.663 12.46-40.57-3.49-10.55-12.6-17.55-21.92-23.53-8.092-5.149-17.313-10.597-22.12-18.74-4.73-8.02-5.01-18.12-5.28-27.89-.05-1.9-.1-3.79-.19-5.67-.3-6.73-1.27-12.61-2.92-17.6 1.65-1.65 3.42-3.19 5.3-4.62 24.54-18.71 58.55-14.52 87.55-24.27 26.22-8.8 47.5-28.84 65.03-50.71 17.59-21.93 32.27-46.19 50.48-67.51 18.22-21.36 40.94-40.06 67.82-46.26a75.51 75.51 0 0 1 17.05-1.88c-1.02 19.16-.17 36.52 8.21 52.08 10.076 18.656 29.822 30.9 51.7 30.9 2.72 0 5.43-.19 8.1-.56 1.09 19.9 1.88 39.93 11.68 56.58 12.49 21.24 36.52 31.57 58.72 41.24 22.23 9.67 45.94 21.72 55.96 44.36 6.58 14.78 5.63 31.31-.26 46.37z" class="coloredebff svgShape"/><path fill="#ffffff" d="M512.87 348.705c-18.64 4.19-30.4 22.76-26.21 41.4 2.21 9.84 8.43 17.76 16.54 22.41 1.7-.72 3.38-1.49 5.05-2.31-8.48-3.75-15.15-11.33-17.34-21.05-3.66-16.3 6.62-32.54 22.92-36.2 14.51-3.26 28.97 4.54 34.55 17.78a86.14 86.14 0 0 0 2.28-5.23c-7.31-12.98-22.53-20.23-37.79-16.8z" class="colorfff svgShape"/><path fill="#ffffff" d="M539.87 384.715c-5.01 6.65-11 12.54-17.62 17.23-9.63.91-18.65-5.47-20.83-15.15-2.36-10.52 4.25-20.97 14.77-23.33 10.52-2.37 20.96 4.24 23.33 14.76.49 2.19.59 4.38.35 6.49z" class="colorfff svgShape"/><path fill="#edebff" d="M55.779 381.898c9.94 16.862 24.569 29.787 41.39 39.334 9.341-9.413 16.774-23.79 12.707-36.069-6.137-18.523-32.664-22.7-43.507-41.07-6.415-10.879-5.818-23.803-6.313-36.44-.196-4.597-.734-8.72-1.612-12.357-18.08 23.33-18.111 60.297-2.665 86.602z" class="coloredebff svgShape"/><path fill="#ffffff" d="M527.28 216.145c-17.53 14.47-44.634 5.424-49.69-17.09-2.6-11.56 1.69-23.09 10.14-30.28-.79-.58-1.57-1.15-2.37-1.71-8.88 7.88-13.33 20.23-10.54 32.62 5.433 24.2 34.217 34.206 53.46 19.3-.31-.95-.65-1.9-1-2.84z" class="colorfff svgShape"/><path fill="#ffffff" d="M521.93 204.875a18.894 18.894 0 0 1-10.06 5.94c-10.23 2.3-20.39-4.13-22.69-14.36-1.79-7.98 1.72-15.91 8.2-20.11 2.6 2.19 5.13 4.48 7.56 6.87 6.55 6.41 12.44 13.71 16.99 21.66z" class="colorfff svgShape"/><path fill="#7951ff" d="M488.256 153.837v220.415c0 8.403-6.805 15.218-15.207 15.218H162.294c-8.402 0-15.218-6.815-15.218-15.218V153.837c0-8.403 6.816-15.218 15.218-15.218H473.05c8.402 0 15.207 6.815 15.207 15.218z" class="color7951ff svgShape"/><path fill="#452b96" d="M488.256 165.168v-11.331c0-8.403-6.805-15.218-15.207-15.218H162.294c-8.402 0-15.218 6.815-15.218 15.218v11.33h341.18z" class="color452b96 svgShape"/><circle cx="460.961" cy="152.654" r="5.413" fill="#ffffff" class="colorfff svgShape"/><circle cx="445.44" cy="152.654" r="5.413" fill="#ffffff" class="colorfff svgShape"/><circle cx="429.919" cy="152.654" r="5.413" fill="#ffffff" class="colorfff svgShape"/><path fill="#ffadaf" d="m169.007 274.02-4.636-11.237 4.722-2.87s12.798-12.796 12.238-.517c-.575 12.298-12.324 14.624-12.324 14.624z" class="colorffadaf svgShape"/><path fill="#ffadaf" d="m171.222 260.156-.701 15.175-7.46-10.102s7.016-14.065 9.077-12.32c2.05 1.746-.916 7.247-.916 7.247z" class="colorffadaf svgShape"/><path fill="#ffa903" d="m84.868 248.248 13.398 20.982 16.435 2.595s36.235 23.581 45.524 26.293c9.272 2.71 13.851-24.513 13.851-24.513.89-.626-7.855-14.46-8.744-13.833l-17.108 17.274s-21.54-27.782-28.602-32.887c-7.046-5.105-34.369 3.788-34.754 4.09z" class="colorffa903 svgShape"/><path fill="#452b96" d="m206.519 249.658-12.512 31.387c-.668 1.678-2.691 3.01-4.522 2.977l-24.107-.44c-1.83-.033-2.77-1.42-2.102-3.097l12.512-31.388c.666-1.67 2.689-3.002 4.519-2.969l24.108.44c1.83.033 2.77 1.419 2.104 3.09z" class="color452b96 svgShape"/><path fill="#ffadaf" d="m179.065 274.655 3.649-4.15s-.268-2.378-2.059-3.984c-1.807-1.607-1.59 8.134-1.59 8.134z" class="colorffadaf svgShape"/><path fill="#10273c" d="M160.222 494.982a1.343 1.343 0 0 1-1.316 1.132h-23.72a1.335 1.335 0 0 1-1.332-1.346c.015-2.112.107-6.29.321-9.84.2-2.97.475-5.54.903-6.015 1.163-1.362 6.994-2.8 6.994-2.8l5.524 3.121c.49 2.312 1.286 5.8 1.745 6.459a.477.477 0 0 0 .23.199c.979.459 9.365 1.882 10.437 3.672.734 1.255.444 3.918.214 5.418z" class="color10273c svgShape"/><path fill="#ffadaf" d="M149.341 485.693c-.49.275-8.448 4.621-15.166-.765.2-2.97.475-5.54.903-6.015 1.163-1.362 6.994-2.8 6.994-2.8l5.096 1.025s.168.888.428 2.096c.49 2.312 1.286 5.8 1.745 6.459z" class="colorffadaf svgShape"/><path fill="#10273c" d="M112.082 494.982a1.343 1.343 0 0 1-1.316 1.132h-23.72a1.335 1.335 0 0 1-1.332-1.346c.015-2.112.107-6.29.321-9.84.2-2.97.475-5.54.903-6.015 1.163-1.362 6.994-2.8 6.994-2.8l5.525 3.121c.49 2.312 1.285 5.8 1.744 6.459a.477.477 0 0 0 .23.199c.98.459 9.365 1.882 10.437 3.672.734 1.255.444 3.918.214 5.418z" class="color10273c svgShape"/><path fill="#ffadaf" d="M101.201 485.693c-.49.275-8.447 4.621-15.166-.765.2-2.97.475-5.54.903-6.015 1.163-1.362 6.994-2.8 6.994-2.8l5.096 1.025s.168.888.429 2.096c.49 2.312 1.285 5.8 1.744 6.459zM115.892 243.777l1.186-6.305s5.014 1.412 5.708-1.287c.694-2.7 1.08-15.27-3.085-16.35-4.164-1.08-12.956.54-12.956.54l-.463 14.653-1.494 8.618s8.605 4.33 11.104.131z" class="colorffadaf svgShape"/><path fill="#262040" d="M106.282 235.028s.84 1.193 3.395.724 5.89-4.17 5.995-4.692c.104-.521.834-3.701 1.668-3.754.834-.052 2.19 1.72 2.19 1.72l1.355-.73s.282-3.932 3.045-8.832-5.13-12.228-10.5-8.683-4.339 4.587-7.148 6.1c-2.81 1.511-6.48 4.655-4.707 10.233 1.773 5.578 4.707 7.914 4.707 7.914z" class="color262040 svgShape"/><path fill="#2e1c66" d="M148.965 347.096s8.532 40.894 11.658 71.36c2.768 26.93-7.943 64.673-9.583 64.673-5.714 0-12.632-.128-16.552-1.102-1.845-.461-3.024-1.102-3.075-2.05-.154-2.998 4.176-63.084 2.05-66.646-2.05-3.433-13.35-31.03-14.067-32.746-.026-.026-.026-.051-.026-.077 0 0-5.676 96.605-14.337 100.832-2.946 1.435-6.329 1.896-9.557 1.768-6.227-.179-11.966-2.434-13.273-3.766-1.999-1.999 3.011-78.412 3.011-79.54 0-1.11-6.202-46.98-4.894-52.706 1.333-5.612 69.157-1.102 69.157-1.102" class="color2e1c66 svgShape"/><path fill="#452b99" d="M85.214 399.802c0 1.127-5.01 77.541-3.01 79.54 1.306 1.332 7.045 3.587 13.272 3.766 8.302-20.55 12.594-107.212 15.438-105.085 2.947 2.178 8.456 2.485 8.456 2.485 0 .026 0 .051.026.077.717 1.716 12.017 29.313 14.067 32.746 2.126 3.562-2.204 63.648-2.05 66.646.051.948 1.23 1.589 3.075 2.05a15.31 15.31 0 0 0 1.64-3.049 145.71 145.71 0 0 0 10.53-44.636c1.794-24.316-2.51-48.607-6.79-72.59-18.858 9.199-42.688 3.613-59.65-9.173.615 13.734 4.996 46.301 4.996 47.223z" class="color452b99 svgShape"/><path fill="#ffadaf" d="m179.065 274.655 7.8 9.32s10.51-5.739 7.364-17.638c-3.147-11.883-11.515 4.167-11.515 4.167" class="colorffadaf svgShape"/><path fill="#fcc922" d="M77.983 350.373c1.49 2.829 12.201 5.774 14.51 6.276 2.31.486 3.465-10.041 3.465-10.041s2.527 7.28 4.586 10.527c2.862 4.535 43.298-3.883 48.419-10.042 3.515-4.251-8.117-43.833-8.519-45.657l.067.1c1.071 2.377 10.226 21.807 22.26 20.854 12.837-.988 26.343-30.461 26.527-37.206a8.066 8.066 0 0 0-1.289-4.636c-2.142-3.481-6.627-5.171-8.937-5.891-3.13-1.004-15.632 17.607-15.632 17.607s-12.798-24.232-17.942-31.766c-16.924-24.788-52.38-20.992-62.668-10.496-10.732 10.948-6.32 97.576-4.847 100.371z" class="colorfcc922 svgShape"/><path fill="#ffa903" d="m140.407 301.307.025.077.077.154c1.076 2.383 10.224 21.805 22.267 20.857 12.837-1 26.34-30.466 26.52-37.205a8.022 8.022 0 0 0-1.282-4.638c-4.227 7.072-15.553 25.265-26.11 26.52-13.196 1.563-28.441-38.204-28.441-38.204-2.255 7.687 6.944 32.44 6.944 32.44z" class="colorffa903 svgShape"/><path d="M354.46 220.256a6.709 6.709 0 0 1-5.096-2.342l-8.688 7.117 2.27-6.29a5.862 5.862 0 0 1-5.052-3.57c-.105.009-.205.009-.31.009a5.587 5.587 0 0 1-2.934-10.34c.481-3.74 3.673-6.635 7.546-6.635 1.94 0 3.708.73 5.055 1.924a8.082 8.082 0 0 1 5.958-2.61c2.225 0 4.238.894 5.705 2.341a8.355 8.355 0 0 1 1.632 16.535 6.725 6.725 0 0 1-6.086 3.86zM401.128 262.575c0 1.395-.565 2.75-1.48 3.664-.914.918-2.18 1.576-3.576 1.576h-3.133v11.682c0 2.79-2.015 6.283-4.805 6.283h-.47c-2.794 0-5.312-3.493-5.312-6.283v-11.682h-20.419c-4.234 0-7.665-3.379-7.665-7.609 0-.71.1-1.38.288-2.054.189-.677.473-1.31.842-1.915l21.67-35.208c.918-1.499 2.55-2.3 4.31-2.3h.365c3.941 0 6.367 3.916 4.318 7.284l-19.228 31.215h15.519v-6.446c0-2.794 2.518-5.104 5.313-5.104h.469c2.79 0 4.805 2.31 4.805 5.104v6.446h3.133c2.795 0 5.056 2.556 5.056 5.347zM411.874 229.264c-.012-.112-.328-.224-.328-.34v-7.907c0-2.269 2.464-3.25 4.729-3.25h5.02c2.269 0 2.763.981 2.763 3.25v7.907c0 .116.667.228.659.34l-2.174 30.17c-.177 2.13-1.79 3.769-3.926 3.769-1.07 0-1.965-.41-2.695-1.087-.737-.673-1.34-1.62-1.429-2.682l-2.62-30.17zM425.87 278.27c0 1.924-.69 3.576-2.078 4.96-1.383 1.382-3.035 2.076-4.955 2.076-1.925 0-3.576-.694-4.96-2.077-1.39-1.383-2.084-3.035-2.084-4.96 0-1.92.693-3.576 2.084-4.959 1.384-1.383 3.035-2.08 4.96-2.08 1.92 0 3.572.697 4.955 2.08 1.387 1.383 2.077 3.04 2.077 4.96zM263.14 262.575c0 1.395-.564 2.75-1.483 3.664-.914.918-2.177 1.576-3.572 1.576h-2.456v11.682c0 2.79-2.696 6.283-5.486 6.283h-.47c-2.79 0-5.593-3.493-5.593-6.283v-11.682h-20.138c-4.234 0-7.662-3.379-7.662-7.609 0-.71.097-1.38.29-2.054.188-.677.472-1.31.841-1.915l21.67-35.208c.918-1.499 2.55-2.3 4.306-2.3h.365c3.945 0 6.37 3.916 4.322 7.284l-19.233 31.215h15.239v-6.446c0-2.794 2.803-5.104 5.594-5.104h.469c2.79 0 5.486 2.31 5.486 5.104v6.446h2.456c2.79 0 5.056 2.556 5.056 5.347z" opacity=".05" fill="#000000" class="color000 svgShape"/><path fill="#ffffff" d="M237.803 251.665v-7.031a5.055 5.055 0 0 1 5.055-5.055h.469a5.055 5.055 0 0 1 5.055 5.055v7.03h2.887a5.055 5.055 0 0 1 0 10.11h-2.887v11.576a5.055 5.055 0 0 1-5.055 5.055h-.47a5.055 5.055 0 0 1-5.054-5.055v-11.575h-20.677a7.663 7.663 0 0 1-6.532-11.67l21.67-35.324a5.055 5.055 0 0 1 4.309-2.411h.365c3.943 0 6.368 4.313 4.318 7.682l-19.23 31.613h15.777zM375.792 251.665v-7.031a5.055 5.055 0 0 1 5.055-5.055h.47a5.055 5.055 0 0 1 5.054 5.055v7.03h2.887a5.055 5.055 0 0 1 0 10.11h-2.887v11.576a5.055 5.055 0 0 1-5.055 5.055h-.469a5.055 5.055 0 0 1-5.055-5.055v-11.575h-20.676a7.663 7.663 0 0 1-6.532-11.67l21.67-35.324a5.055 5.055 0 0 1 4.308-2.411h.365c3.943 0 6.368 4.313 4.319 7.682l-19.23 31.613h15.776zM412.02 279.158c-1.923 0-3.576-.692-4.96-2.076-1.391-1.384-2.083-3.037-2.083-4.959 0-1.922.692-3.575 2.084-4.959 1.383-1.384 3.036-2.083 4.959-2.083 1.922 0 3.575.7 4.958 2.083 1.384 1.384 2.076 3.037 2.076 4.96 0 1.921-.692 3.574-2.076 4.958-1.383 1.384-3.036 2.076-4.958 2.076zm-2.56-68.395h5.02a4.106 4.106 0 0 1 4.105 4.106v7.91c0 .113-.004.226-.014.34l-2.51 30.17a4.106 4.106 0 0 1-8.184 0l-2.51-30.17a4.114 4.114 0 0 1-.013-.34v-7.91a4.106 4.106 0 0 1 4.106-4.106z" class="colorfff svgShape"/><path fill="#ff2e56" d="M327.836 198.692a7.606 7.606 0 0 1 12.598-4.709 8.09 8.09 0 0 1 5.96-2.611c2.224 0 4.238.895 5.703 2.343a8.353 8.353 0 0 1 1.635 16.531 6.727 6.727 0 0 1-11.185 1.52l-8.687 7.12 2.27-6.293a5.866 5.866 0 0 1-5.053-3.568 5.587 5.587 0 0 1-3.241-10.333z" class="colorff2e56 svgShape"/><path fill="#f3f6fd" d="M331.148 205.493a2.625 2.625 0 0 1-1.047-1.094c-.245-.471-.368-1.011-.368-1.62s.123-1.148.368-1.62c.246-.472.595-.836 1.047-1.094s.978-.385 1.579-.385c.593 0 1.115.128 1.567.385s.804.622 1.053 1.094c.25.472.375 1.012.375 1.62s-.125 1.149-.375 1.62c-.249.473-.6.837-1.053 1.094s-.974.386-1.567.386c-.6 0-1.127-.129-1.58-.386zm2.498-.807c.292-.148.534-.382.724-.702.192-.32.288-.725.288-1.216 0-.484-.096-.885-.288-1.205a1.746 1.746 0 0 0-.724-.696 2.08 2.08 0 0 0-1.849 0 1.718 1.718 0 0 0-.72.696c-.186.32-.28.721-.28 1.205 0 .49.094.897.28 1.216.188.32.428.554.72.702a2.028 2.028 0 0 0 1.849 0zM338.26 205.493a2.625 2.625 0 0 1-1.047-1.094c-.245-.471-.368-1.011-.368-1.62s.123-1.148.368-1.62c.246-.472.595-.836 1.047-1.094s.979-.385 1.58-.385c.592 0 1.114.128 1.567.385s.803.622 1.052 1.094c.25.472.375 1.012.375 1.62s-.125 1.149-.375 1.62c-.249.473-.6.837-1.052 1.094s-.975.386-1.568.386c-.6 0-1.127-.129-1.579-.386zm2.498-.807c.292-.148.534-.382.725-.702.191-.32.287-.725.287-1.216 0-.484-.096-.885-.287-1.205a1.746 1.746 0 0 0-.725-.696 2.08 2.08 0 0 0-1.849 0 1.718 1.718 0 0 0-.72.696c-.186.32-.28.721-.28 1.205 0 .49.094.897.28 1.216.188.32.429.554.72.702a2.028 2.028 0 0 0 1.85 0zM344.472 208.353a.527.527 0 0 1-.152-.38v-7.708c0-.149.05-.273.152-.375a.51.51 0 0 1 .374-.152.53.53 0 0 1 .538.527v.303c.57-.592 1.236-.888 2.001-.888.483 0 .942.122 1.374.368s.784.604 1.053 1.076c.268.472.403 1.024.403 1.655 0 .632-.135 1.184-.403 1.656s-.62.83-1.053 1.076-.89.368-1.374.368c-.765 0-1.432-.296-2-.889v2.983c0 .156-.052.285-.152.386a.524.524 0 0 1-.387.152.5.5 0 0 1-.374-.158zm4.152-4.018c.352-.366.527-.885.527-1.556 0-.67-.175-1.189-.527-1.555-.35-.367-.814-.55-1.391-.55-.36 0-.697.08-1.012.24-.316.16-.595.372-.837.637v2.457c.242.265.52.477.837.637.315.16.652.24 1.012.24.577 0 1.04-.183 1.391-.55zM351.502 205.353a.448.448 0 0 1-.199-.386.47.47 0 0 1 .129-.328.425.425 0 0 1 .327-.14c.07 0 .14.016.211.047.25.109.5.195.748.257.25.063.53.093.843.093.865 0 1.298-.276 1.298-.83 0-.18-.099-.316-.298-.41s-.525-.198-.977-.315a8.687 8.687 0 0 1-1.14-.34 1.998 1.998 0 0 1-.773-.532c-.214-.238-.321-.551-.321-.941 0-.546.196-.99.59-1.334.394-.343.958-.514 1.691-.514.6 0 1.165.097 1.696.292.109.031.193.09.251.175s.088.176.088.27a.458.458 0 0 1-.134.327.445.445 0 0 1-.333.14.633.633 0 0 1-.153-.023 4.488 4.488 0 0 0-1.333-.21c-.422 0-.75.076-.989.227-.237.153-.356.35-.356.591 0 .234.109.406.327.515.218.11.557.215 1.018.316.46.117.834.232 1.122.345.29.113.536.29.743.532s.31.566.31.97c0 .5-.196.914-.59 1.24-.394.328-.95.492-1.667.492-.78 0-1.49-.175-2.129-.526z" class="colorf3f6fd svgShape"/><path fill="#ffffff" d="M184.076 322.838a3.886 3.886 0 0 1-1.508-1.57c-.355-.667-.54-1.434-.557-2.299.017-.865.202-1.631.557-2.299a3.885 3.885 0 0 1 1.508-1.569c.65-.379 1.408-.569 2.273-.569s1.621.19 2.269.57c.646.378 1.149.903 1.507 1.575s.545 1.435.562 2.292c-.017.857-.203 1.621-.562 2.293a3.94 3.94 0 0 1-1.507 1.576c-.648.379-1.404.568-2.269.568s-1.623-.19-2.273-.568zm3.99-.927c.487-.297.858-.7 1.113-1.211.256-.511.384-1.088.384-1.73s-.128-1.22-.384-1.73a2.92 2.92 0 0 0-1.112-1.212c-.487-.297-1.059-.445-1.718-.445-.667 0-1.242.148-1.724.445-.482.297-.851.7-1.106 1.211-.256.511-.383 1.088-.383 1.73s.127 1.22.383 1.73c.255.511.624.915 1.106 1.212.482.297 1.057.445 1.724.445.66 0 1.231-.148 1.718-.445zM193.221 322.999c-.478-.272-.847-.658-1.106-1.156s-.39-1.07-.39-1.712c0-.643.13-1.213.39-1.712s.628-.883 1.106-1.155c.478-.272 1.034-.408 1.668-.408.626 0 1.179.136 1.656.408s.849.657 1.113 1.155.395 1.07.395 1.712c0 .643-.132 1.213-.395 1.712s-.635.884-1.113 1.156-1.03.407-1.656.407c-.634 0-1.19-.135-1.668-.407zm2.639-.853c.308-.157.564-.404.766-.742.201-.338.303-.766.303-1.285 0-.511-.102-.935-.303-1.273a1.852 1.852 0 0 0-.766-.736 2.195 2.195 0 0 0-1.953 0 1.809 1.809 0 0 0-.76.736c-.198.338-.297.762-.297 1.273 0 .519.099.947.297 1.285.197.338.451.585.76.742a2.145 2.145 0 0 0 1.953 0zM199.784 326.02a.562.562 0 0 1-.16-.401v-8.145a.54.54 0 0 1 .16-.395c.107-.108.239-.161.395-.161a.56.56 0 0 1 .568.556v.321c.602-.626 1.307-.939 2.115-.939.51 0 .994.13 1.452.39.457.259.828.638 1.112 1.136s.426 1.082.426 1.75c0 .666-.142 1.25-.426 1.748s-.655.877-1.112 1.137c-.458.26-.942.39-1.452.39-.808 0-1.513-.314-2.115-.94v3.152a.55.55 0 0 1-.568.568.53.53 0 0 1-.395-.166zm4.387-4.245c.371-.387.557-.935.557-1.644 0-.709-.186-1.256-.557-1.644s-.861-.58-1.47-.58c-.38 0-.736.084-1.07.253a3.068 3.068 0 0 0-.884.673v2.596c.256.28.551.505.884.674.334.168.69.253 1.07.253.609 0 1.1-.194 1.47-.581zM207.211 322.85a.47.47 0 0 1-.21-.408c0-.131.045-.247.136-.346a.448.448 0 0 1 .346-.148c.074 0 .148.016.222.05.264.115.528.206.791.271.264.066.561.1.89.1.915 0 1.372-.293 1.372-.878 0-.19-.105-.334-.315-.433-.21-.099-.554-.21-1.032-.334a9.238 9.238 0 0 1-1.206-.358c-.316-.124-.588-.31-.815-.562s-.34-.583-.34-.995c0-.577.208-1.047.624-1.41.416-.362 1.012-.543 1.786-.543a5.15 5.15 0 0 1 1.792.309.462.462 0 0 1 .266.185.487.487 0 0 1-.049.63.47.47 0 0 1-.352.149.698.698 0 0 1-.162-.025 4.744 4.744 0 0 0-1.408-.222c-.445 0-.794.08-1.045.24s-.377.37-.377.625c0 .247.116.428.347.544.23.115.589.227 1.075.334.486.123.881.245 1.187.364.304.12.566.307.784.562.219.256.328.598.328 1.026 0 .527-.209.964-.625 1.31s-1.003.52-1.76.52a4.595 4.595 0 0 1-2.25-.557zM213.261 325.038a.365.365 0 0 1-.105-.26c0-.132.062-.235.185-.309.206-.123.362-.268.47-.432.107-.165.161-.404.161-.717h-.05a.665.665 0 0 1-.488-.204.666.666 0 0 1-.204-.489v-.073c0-.19.068-.353.204-.489a.665.665 0 0 1 .488-.204h.124c.19 0 .352.068.488.204a.663.663 0 0 1 .204.489v.729c0 .79-.338 1.392-1.014 1.804a.386.386 0 0 1-.21.062.334.334 0 0 1-.253-.111zM221.214 323.196a.759.759 0 0 1-.272-.37l-1.755-5.142a.674.674 0 0 1-.037-.21c0-.157.053-.288.16-.395a.536.536 0 0 1 .396-.161c.116 0 .221.03.316.092a.461.461 0 0 1 .191.241l1.446 4.759 1.434-4.647c.041-.132.117-.239.229-.321s.236-.124.377-.124c.14 0 .265.041.377.124s.187.189.228.32l1.434 4.648 1.446-4.759c.032-.099.097-.179.191-.24a.565.565 0 0 1 .316-.093c.156 0 .288.053.395.16a.54.54 0 0 1 .16.396.674.674 0 0 1-.037.21c-1.896 5.415-1.683 5.253-2.026 5.512-.133.099-.28.149-.445.149s-.314-.05-.446-.149a.826.826 0 0 1-.284-.383l-1.31-4.09-1.31 4.09a.826.826 0 0 1-.284.383.725.725 0 0 1-.445.149.724.724 0 0 1-.445-.149zM229.099 320.131c0-1.114.388-2.186 1.31-2.818.88-.601 2.316-.613 3.226-.03.925.59 1.36 1.616 1.36 2.687 0 .304-.211.557-.569.557h-4.19c.13 1.144.854 1.829 2.164 1.829 1.543 0 1.759-.734 2.236-.297.21.19.24.565-.173.803-.762.431-1.32.544-2.163.544-1.005 0-3.201-1.12-3.201-3.275zm4.783-.52c-.145-2.39-3.499-2.419-3.645 0h3.645zM239.758 321.874c-.6-.987-.61-2.484 0-3.485 1.011-1.663 3.249-1.968 4.863-.94.558.362.08 1.167-.494.853-.655-.337-.942-.396-1.42-.396-1.458 0-2.275.924-2.275 2.225 0 1.306.821 2.225 2.274 2.225.476 0 .77-.06 1.421-.396.574-.314 1.052.492.494.853-.743.475-1.365.593-2.013.593-.594 0-2.238-.527-2.85-1.532zM246.594 320.094c1.014-.764 2.64-.487 3.614-.544v-.099c0-1.017-.447-1.532-1.656-1.532-1.438 0-1.738.576-2.125.185a.49.49 0 0 1 .186-.803c1.06-.45 2.59-.682 3.577-.099.768.452 1.143 1.214 1.143 2.089-.052 3.568.126 3.61-.167 3.893-.354.34-.958.114-.958-.395v-.322c-.609.626-1.383.94-2.323.94-2.062 0-2.644-2.297-1.29-3.313zm3.614 1.397v-1.038c-.758.076-3.213-.332-3.213.976 0 .74.572.988 1.31.988.757 0 1.468-.428 1.903-.926zM253.224 322.789c.053-5.532-.126-5.406.16-5.705a.559.559 0 0 1 .798 0c.25.25.138.505.166.91a4.12 4.12 0 0 1 1.014-.829c.67-.382 1.744-.45 2.465.012.706.453 1.033 1.263 1.033 2.101-.053 3.583.126 3.623-.167 3.906a.572.572 0 0 1-.797 0c-.28-.28-.11-.338-.161-3.782 0-1.005-.453-1.508-1.36-1.508-.867 0-1.49.514-2.027 1.187-.051 3.758.128 3.82-.166 4.103a.561.561 0 0 1-.402.16.546.546 0 0 1-.556-.555zM260.38 317.017c0-.344.362-.293.655-.742.107-.165.16-.403.16-.717h-.05a.667.667 0 0 1-.487-.204.668.668 0 0 1-.205-.488v-.074c0-.19.069-.352.205-.488a.667.667 0 0 1 .488-.204h.124c.19 0 .351.068.487.204a.664.664 0 0 1 .204.488v.729c0 .791-.338 1.393-1.013 1.805a.39.39 0 0 1-.21.061.368.368 0 0 1-.359-.37zM263.889 321.775v-3.832h-.877a.225.225 0 0 1-.167-.068.228.228 0 0 1-.068-.167c0-.082.037-.152.111-.21l1.682-1.643c.073-.074.143-.111.21-.111a.22.22 0 0 1 .167.074c.045.05.067.107.067.173v.988h1.396a.47.47 0 0 1 .347.137c.09.09.136.206.136.345a.477.477 0 0 1-.483.482h-1.396v3.733c0 .322.076.525.229.612.152.087.343.13.575.13.164 0 .329-.025.494-.075l.105-.024a.681.681 0 0 1 .142-.013c.115 0 .219.044.31.13.09.086.135.191.135.315 0 .19-.094.334-.284.433a2.427 2.427 0 0 1-1.026.222c-1.203 0-1.805-.544-1.805-1.631zM272.083 323.184a.54.54 0 0 1-.16-.395v-4.846h-.73a.464.464 0 0 1-.34-.142.463.463 0 0 1-.142-.34c0-.14.048-.255.143-.345a.474.474 0 0 1 .34-.137h.73v-.716c0-.494.087-.9.265-1.218.177-.317.407-.547.692-.692.284-.144.582-.216.896-.216.376 0 1.068.117 1.279.426a.452.452 0 0 1-.056.581c-.163.17-.36.167-.605.105-.387-.048-.801-.073-1.094.198-.169.157-.254.44-.254.853v.68h1.545c.287 0 .483.205.483.481a.474.474 0 0 1-.483.482h-1.545v4.846a.561.561 0 0 1-.568.556.54.54 0 0 1-.396-.16zM276.077 315.064v-.05c0-.173.061-.321.184-.445.224-.223.418-.169.52-.185.346 0 .63.279.63.63v.05a.608.608 0 0 1-.185.445.609.609 0 0 1-.445.185h-.075a.63.63 0 0 1-.63-.63zm.098 7.725c.053-5.532-.125-5.406.16-5.705.226-.233.6-.21.804-.005.289.287.109.252.16 5.71a.556.556 0 0 1-.568.556c-.156 0-.556-.244-.556-.556zM279.252 322.789c.053-5.532-.125-5.406.16-5.705a.559.559 0 0 1 .798 0c.25.25.139.505.166.91a4.12 4.12 0 0 1 1.014-.829c.67-.382 1.745-.45 2.466.012.705.453 1.032 1.263 1.032 2.101-.052 3.583.126 3.623-.167 3.906a.572.572 0 0 1-.797 0c-.28-.28-.11-.338-.161-3.782 0-1.005-.453-1.508-1.36-1.508-.411 0-.78.107-1.106.321a4.032 4.032 0 0 0-.92.866c-.052 3.758.127 3.82-.167 4.103a.561.561 0 0 1-.402.16.546.546 0 0 1-.556-.555zM286.822 321.88c-.572-1.003-.572-2.494 0-3.498.585-1.027 1.578-1.526 2.564-1.526.808 0 1.512.313 2.113.94.05-3.018-.123-3.157.167-3.437a.564.564 0 0 1 .797.007c.303.312.108.18.161 8.423a.547.547 0 0 1-.556.556.557.557 0 0 1-.569-.556v-.322c-.601.626-1.305.94-2.113.94-.979 0-1.975-.494-2.564-1.527zm4.677-.451v-2.596a3.042 3.042 0 0 0-.883-.673c-.785-.397-1.88-.363-2.54.327-.748.781-.75 2.505 0 3.288.37.387.86.581 1.471.581.76 0 1.446-.371 1.952-.927zM298.16 321.775v-3.832h-.876a.232.232 0 0 1-.236-.235c0-.165.003-.085 1.793-1.853.147-.15.286-.135.377-.037.116.127.048.197.067 1.161h1.397c.287 0 .482.206.482.482a.474.474 0 0 1-.482.482h-1.397c.064 3.55-.156 4.126.229 4.345.3.17.737.155 1.07.055.105-.025.142-.037.246-.037.224 0 .446.189.446.445 0 .19-.095.334-.284.433a2.427 2.427 0 0 1-1.027.222c-1.203 0-1.805-.544-1.805-1.631zM302.512 322.789c.054-8.275-.14-8.11.16-8.423a.558.558 0 0 1 .798 0c.29.288.115.353.166 3.627a4.12 4.12 0 0 1 1.014-.828c.67-.382 1.744-.45 2.466.012.705.453 1.032 1.263 1.032 2.101-.053 3.583.126 3.623-.167 3.906a.572.572 0 0 1-.797 0c-.28-.28-.11-.338-.161-3.782 0-1.005-.453-1.508-1.36-1.508-.412 0-.78.107-1.106.321a4.032 4.032 0 0 0-.92.866c-.052 3.758.127 3.82-.167 4.103a.561.561 0 0 1-.402.16.546.546 0 0 1-.556-.555zM309.655 320.131c0-1.114.388-2.186 1.31-2.818.88-.601 2.316-.613 3.226-.03.445.283.783.663 1.013 1.136s.346.991.346 1.551a.55.55 0 0 1-.154.396.546.546 0 0 1-.414.16h-4.19c.13 1.145.854 1.83 2.163 1.83.593 0 1.089-.094 1.668-.383a.494.494 0 0 1 .223-.05c.132 0 .247.046.346.136.1.09.148.206.148.346 0 .181-.107.334-.321.457a4.475 4.475 0 0 1-.951.409c-.314.09-.717.135-1.212.135-1.94 0-3.201-1.12-3.201-3.275zm4.783-.52c-.145-2.39-3.5-2.419-3.646 0h3.646zM320.407 326.02a.562.562 0 0 1-.16-.401c.053-8.37-.142-8.238.16-8.54a.573.573 0 0 1 .797 0 .526.526 0 0 1 .166.395v.321c.602-.626 1.307-.939 2.115-.939.979 0 1.975.493 2.564 1.526.57 1.001.571 2.496 0 3.498-.586 1.027-1.578 1.526-2.564 1.526-.808 0-1.513-.313-2.115-.94v3.153a.55.55 0 0 1-.568.568.53.53 0 0 1-.395-.166zm4.944-5.889c0-1.485-.87-2.225-2.027-2.225-.76 0-1.443.368-1.954.927v2.596c.256.28.551.505.884.674.334.168.69.253 1.07.253 1.156 0 2.027-.736 2.027-2.225zM327.91 322.535c-.437-.683-.402-1.8.45-2.44 1.015-.765 2.64-.488 3.615-.545v-.099c0-1.017-.448-1.532-1.656-1.532-.499 0-.899.049-1.644.296-.178.046-.338.034-.481-.111a.49.49 0 0 1 .185-.803c1.061-.45 2.59-.682 3.577-.099.768.452 1.144 1.214 1.144 2.089-.053 3.568.126 3.61-.167 3.893a.572.572 0 0 1-.797 0 .538.538 0 0 1-.161-.395v-.322c-.61.626-1.384.94-2.323.94-.682 0-1.361-.272-1.742-.872zm4.065-1.044v-1.038h-1.347c-1.244 0-1.866.325-1.866.976 0 .297.1.535.303.717.202.181.537.271 1.007.271.757 0 1.468-.428 1.903-.926zM335.288 325.606c-.262-.16-.3-.545-.08-.785.137-.149.332-.2.575-.105.626.313 1.305.47 2.039.47 2.394 0 1.798-2.426 1.89-2.843-.585.627-1.289.94-2.113.94-.948 0-1.94-.468-2.546-1.452-.597-.97-.598-2.553 0-3.523 1.016-1.65 3.267-2.004 4.66-.513v-.309c0-.3.227-.568.556-.568.317 0 .568.255.568.568v5.525c0 1.038-.25 1.837-.754 2.398-.503.56-1.22.84-2.15.84-1.02 0-2.065-.307-2.645-.643zm4.424-4.264v-2.546c-.708-.73-1.287-.914-1.878-.914-1.19 0-2.101.725-2.101 2.187 0 1.45.898 2.188 2.101 2.188.584 0 1.165-.178 1.878-.915zM342.406 320.131c0-1.114.388-2.186 1.31-2.818.88-.601 2.316-.613 3.226-.03.925.59 1.36 1.616 1.36 2.687 0 .304-.211.557-.57.557h-4.189c.13 1.144.854 1.829 2.163 1.829 1.543 0 1.76-.734 2.237-.297.209.19.24.565-.173.803-.762.431-1.32.544-2.163.544-1.005 0-3.201-1.12-3.201-3.275zm4.783-.52c-.145-2.39-3.5-2.419-3.646 0h3.646zM353.875 325.644c0-.184.022-.123.841-2.263l-2.323-5.66a.573.573 0 0 1 .111-.637.55.55 0 0 1 .71-.067c.271.188.098.072 2.108 4.968l1.94-4.696c.2-.46.675-.453.915-.205.172.18.193.423.123.612l-3.374 8.108c-.115.255-.288.383-.518.383a.537.537 0 0 1-.533-.543zM359.555 321.843c-.522-1.002-.522-2.422 0-3.424.544-1.043 1.561-1.563 2.774-1.563 1.3 0 2.26.602 2.769 1.563.53 1.002.53 2.422 0 3.424-.508.96-1.468 1.563-2.769 1.563-.633 0-2.23-.52-2.774-1.563zm4.512-.439c.398-.669.415-1.862 0-2.558-.386-.645-1.022-.964-1.738-.964-.726 0-1.363.315-1.742.964-.404.688-.393 1.888 0 2.558.382.655 1.025.976 1.742.976.338 0 1.344-.318 1.738-.976zM367.267 322.208c-.432-.9-.2-1.45-.266-4.734 0-.324.261-.556.569-.556.314 0 .555.24.555.556v3.386c0 1.006.453 1.508 1.36 1.508.863 0 1.487-.509 2.027-1.186v-3.708c0-.319.258-.556.568-.556.315 0 .557.241.557.556-.053 5.535.127 5.405-.161 5.704a.556.556 0 0 1-.797 0c-.251-.252-.139-.504-.167-.909a4.108 4.108 0 0 1-1.014.828c-.362.206-.79.31-1.285.31-.921 0-1.599-.471-1.946-1.2zM374.12 317.017c0-.344.362-.293.655-.742.107-.165.16-.403.16-.717h-.049a.667.667 0 0 1-.488-.204.668.668 0 0 1-.204-.488v-.074c0-.38.31-.692.692-.692.1.014.352-.056.611.204.313.312.167.617.205 1.217 0 .791-.338 1.393-1.014 1.805a.39.39 0 0 1-.21.061.368.368 0 0 1-.359-.37zM377.42 323.184a.54.54 0 0 1-.16-.395v-5.303a.562.562 0 0 1 .555-.568c.156 0 .29.055.402.166s.166.246.166.402v.532c.577-.775 1.224-1.162 1.94-1.162h.063c.156 0 .286.054.389.16.103.108.155.24.155.396a.497.497 0 0 1-.161.383.58.58 0 0 1-.408.148h-.062c-.395 0-.758.098-1.088.29-.329.195-.605.46-.828.798v3.758a.561.561 0 0 1-.568.556.54.54 0 0 1-.396-.16zM385.367 323.184a.54.54 0 0 1-.16-.395v-8.022a.56.56 0 0 1 .555-.568c.165 0 .3.053.408.16.108.108.16.244.16.408v8.022a.561.561 0 0 1-.568.556.54.54 0 0 1-.395-.16zM389.396 322.999c-.479-.272-.847-.658-1.107-1.156s-.39-1.07-.39-1.712c0-.643.13-1.213.39-1.712s.628-.883 1.107-1.155c.477-.272 1.034-.408 1.668-.408.626 0 1.179.136 1.656.408s.849.657 1.112 1.155.396 1.07.396 1.712c0 .643-.132 1.213-.396 1.712s-.634.884-1.112 1.156-1.03.407-1.656.407c-.634 0-1.19-.135-1.668-.407zm2.639-.853c.308-.157.564-.404.766-.742.201-.338.303-.766.303-1.285 0-.511-.102-.935-.303-1.273a1.852 1.852 0 0 0-.766-.736 2.195 2.195 0 0 0-1.953 0 1.809 1.809 0 0 0-.76.736c-.199.338-.297.762-.297 1.273 0 .519.098.947.297 1.285.197.338.45.585.76.742a2.145 2.145 0 0 0 1.953 0zM396.91 322.999c-.479-.272-.847-.658-1.107-1.156s-.39-1.07-.39-1.712c0-.643.13-1.213.39-1.712s.628-.883 1.107-1.155c.477-.272 1.034-.408 1.667-.408.626 0 1.18.136 1.657.408s.848.657 1.112 1.155.396 1.07.396 1.712c0 .643-.132 1.213-.396 1.712s-.635.884-1.112 1.156-1.03.407-1.657.407c-.633 0-1.19-.135-1.667-.407zm2.638-.853c.309-.157.565-.404.767-.742.201-.338.303-.766.303-1.285 0-.511-.102-.935-.303-1.273a1.852 1.852 0 0 0-.767-.736 2.195 2.195 0 0 0-1.953 0 1.809 1.809 0 0 0-.76.736c-.198.338-.297.762-.297 1.273 0 .519.1.947.297 1.285.198.338.451.585.76.742a2.145 2.145 0 0 0 1.953 0zM403.472 323.184a.54.54 0 0 1-.16-.395v-8.022a.56.56 0 0 1 .958-.401c.111.11.166.245.166.401v5.055l2.942-2.719a.568.568 0 0 1 .37-.16c.19 0 .329.053.414.16a.59.59 0 0 1 .13.383c0 .14-.07.28-.21.42l-1.779 1.595 2.236 2.966a.545.545 0 0 1 .124.334.512.512 0 0 1-.16.395.58.58 0 0 1-.408.149.607.607 0 0 1-.458-.235l-2.125-2.892-1.076.976v1.595a.561.561 0 0 1-.568.556.54.54 0 0 1-.396-.16zM409.949 315.064v-.05c0-.173.061-.321.184-.445.224-.223.419-.169.52-.185.346 0 .63.279.63.63v.05a.608.608 0 0 1-.185.445.609.609 0 0 1-.445.185h-.075a.63.63 0 0 1-.63-.63zm.258 8.12a.54.54 0 0 1-.16-.395c.053-5.532-.125-5.406.16-5.705.226-.233.6-.21.804-.005.289.287.109.252.16 5.71a.561.561 0 0 1-.568.556.54.54 0 0 1-.396-.16zM413.125 322.789c.053-5.532-.125-5.406.16-5.705a.559.559 0 0 1 .798 0c.25.25.139.505.166.91.817-.903 1.542-1.138 2.3-1.138.922 0 1.597.47 1.946 1.199.433.908.2 1.449.266 4.734 0 .726-1.125.749-1.125 0v-3.387c0-1.005-.453-1.508-1.36-1.508-.867 0-1.49.514-2.027 1.187v3.708a.556.556 0 0 1-.568.556c-.156 0-.556-.244-.556-.556zM420.949 325.606c-.263-.16-.301-.545-.081-.785.454-.494.827.365 2.614.365 2.395 0 1.798-2.426 1.89-2.843-.984 1.054-2.372 1.19-3.528.575-2.11-1.121-2.114-4.572 0-5.697 1.152-.613 2.54-.483 3.528.574v-.309c0-.3.228-.568.557-.568.317 0 .568.255.568.568v5.525c0 1.96-.936 3.238-2.904 3.238-1.02 0-2.065-.307-2.644-.643zm4.423-4.264v-2.546a3.689 3.689 0 0 0-.852-.667c-.697-.386-1.84-.356-2.54.315-1.009.966-.895 3.813 1.514 3.813.584 0 1.165-.178 1.878-.915zM432.133 322.789v-4.846c-.647-.031-.845.083-1.07-.142a.481.481 0 0 1 0-.685c.226-.216.437-.107 1.07-.137v-.716c0-1.04.428-1.641.958-1.91.63-.32 1.378-.266 1.97.031.489.244.287.902-.172.902-.16 0-.458-.074-.618-.074-.753 0-1.014.346-1.014 1.088v.68c1.515.038 1.665-.092 1.892.136a.499.499 0 0 1 0 .685c-.23.24-.44.104-1.892.142v4.846c0 .32-.259.556-.568.556-.156 0-.556-.244-.556-.556zM436.033 321.843c-.522-1.002-.522-2.422 0-3.424 1.086-2.085 4.426-2.111 5.543 0 .53 1.002.53 2.422 0 3.424-.508.96-1.468 1.563-2.769 1.563-.634 0-2.231-.52-2.774-1.563zm4.511-.439c.399-.669.415-1.862 0-2.558-.783-1.31-2.735-1.276-3.48 0-.403.688-.393 1.888 0 2.558.383.655 1.025.976 1.743.976.338 0 1.344-.318 1.737-.976zM443.54 322.789c.054-5.532-.125-5.406.16-5.705a.559.559 0 0 1 .798 0c.252.252.138.509.166.934.578-.775 1.224-1.162 1.94-1.162h.063c.157 0 .286.054.389.16.204.212.215.575-.006.78-.192.176-.37.134-.47.147-.812 0-1.483.432-1.916 1.088v3.758a.556.556 0 0 1-.568.556c-.156 0-.556-.244-.556-.556zM448.31 322.59a.735.735 0 1 1 .73.742c-.198 0-.73-.313-.73-.741zm.31-2.05-.223-4.08v-1.223c0-.363.278-.643.642-.643.372 0 .631.286.631.643v1.223l-.222 4.08c-.015.202-.15.357-.409.357-.123 0-.405-.156-.42-.358z" class="colorfff svgShape"/><path fill="#452b96" d="M357.25 349.277a9.365 9.365 0 0 1-2.75 6.64 9.365 9.365 0 0 1-6.64 2.75h-63.191c-8.39 0-12.502-10.168-6.64-16.03a9.365 9.365 0 0 1 6.64-2.75h63.19a9.39 9.39 0 0 1 9.39 9.39z" class="color452b96 svgShape"/><path fill="#ffffff" d="M283.998 351.572v-5.895c0-.123.042-.228.126-.315a.412.412 0 0 1 .31-.131h2.293c.692 0 1.228.158 1.607.476s.569.744.569 1.28c0 .377-.09.69-.268.938s-.406.436-.684.559c.388.123.707.32.957.593.249.271.373.614.373 1.029 0 2.573-3.38 1.755-4.846 1.903a.43.43 0 0 1-.437-.437zm2.495-3.408c.577 0 .982-.098 1.214-.292.234-.194.35-.466.35-.816a.857.857 0 0 0-.373-.728c-.25-.181-.592-.272-1.025-.272h-1.777v2.108h1.611zm1.54 2.728c.262-.194.393-.469.393-.825 0-.738-.572-1.108-1.719-1.108h-1.825v2.224c1.372-.046 2.566.142 3.152-.29zM291.024 351.931a1.374 1.374 0 0 1-.792-1.281c0-.48.19-.861.568-1.147s.934-.426 1.666-.426h1.175v-.078c0-.428-.106-.735-.315-.923-.211-.188-.54-.282-.987-.282-.246 0-.464.02-.655.059-.19.038-.403.097-.636.175a.55.55 0 0 1-.127.018c-.096 0-.18-.035-.252-.106s-.106-.158-.106-.262c0-.175.084-.298.252-.369.55-.233 1.11-.35 1.68-.35.447 0 .824.091 1.131.272.308.182.534.416.68.704s.219.6.219.938v2.748a.442.442 0 0 1-.447.437c-.124 0-.227-.043-.311-.127s-.126-.187-.126-.31v-.253c-.48.492-1.088.738-1.826.738-.284 0-.548-.058-.791-.175zm1.947-.81c.266-.14.488-.313.67-.52v-.816h-1.059c-.977 0-1.466.256-1.466.767 0 .234.079.421.238.564.158.142.423.214.79.214.286 0 .561-.07.827-.21zM297.011 351.795c-.395-.207-.71-.504-.947-.893s-.355-.845-.355-1.37.118-.98.355-1.368.552-.687.947-.894c.395-.207.825-.31 1.291-.31.344 0 .64.042.889.13.25.087.481.2.694.335a.387.387 0 0 1 .083.608.343.343 0 0 1-.258.12.438.438 0 0 1-.213-.058 3.73 3.73 0 0 0-.548-.237 1.886 1.886 0 0 0-.569-.073c-.556 0-.994.16-1.31.48-.318.32-.477.743-.477 1.268s.16.947.477 1.267c.316.32.754.48 1.31.48.227 0 .416-.024.569-.072.15-.048.335-.127.548-.238a.438.438 0 0 1 .213-.058c.098 0 .184.04.258.12a.387.387 0 0 1-.083.608 3.356 3.356 0 0 1-.694.335c-.25.087-.545.131-.889.131-.466 0-.896-.104-1.29-.31zM301.313 351.931a.422.422 0 0 1-.126-.31v-6.303c0-.123.042-.229.126-.316.084-.087.187-.13.31-.13s.229.043.316.13a.428.428 0 0 1 .132.316v3.972l2.31-2.136a.446.446 0 0 1 .292-.127c.149 0 .257.042.325.127a.465.465 0 0 1 .102.3c0 .11-.055.22-.165.33l-1.399 1.254 1.758 2.33a.43.43 0 0 1 .098.262c0 .13-.043.234-.127.31a.45.45 0 0 1-.32.117c-.065 0-.13-.015-.195-.048s-.12-.078-.165-.135l-1.67-2.273-.844.767v1.253a.413.413 0 0 1-.132.31c-.087.084-.193.126-.316.126s-.226-.042-.31-.126zM310.88 351.931a.422.422 0 0 1-.127-.31v-5.565h-1.981a.393.393 0 0 1-.291-.117c-.078-.077-.117-.175-.117-.291s.039-.215.117-.296a.385.385 0 0 1 .29-.121h4.837c.117 0 .216.04.297.121.08.081.12.18.12.296s-.04.214-.12.291a.411.411 0 0 1-.297.117h-1.97v5.565a.413.413 0 0 1-.133.31c-.087.084-.192.126-.315.126s-.227-.042-.31-.126zM315.171 351.786a2.172 2.172 0 0 1-.869-.909c-.204-.391-.307-.84-.307-1.344s.103-.953.307-1.345c.203-.392.493-.694.87-.908.374-.214.812-.32 1.31-.32.492 0 .926.106 1.302.32.375.214.666.516.874.908.207.392.31.84.31 1.345s-.103.953-.31 1.344a2.22 2.22 0 0 1-.874.909c-.376.214-.81.32-1.302.32-.498 0-.936-.106-1.31-.32zm2.073-.67c.243-.123.444-.318.602-.583.16-.266.238-.602.238-1.01 0-.401-.079-.734-.238-1a1.451 1.451 0 0 0-.602-.578 1.7 1.7 0 0 0-.762-.18c-.272 0-.53.06-.772.18-.243.12-.442.312-.597.578s-.234.599-.234 1c0 .408.078.744.234 1.01s.354.46.597.583a1.682 1.682 0 0 0 1.534 0zM323.028 351.931a.422.422 0 0 1-.126-.31v-5.993a.44.44 0 0 1 .752-.315.43.43 0 0 1 .131.315v2.583h3.68v-2.583a.44.44 0 0 1 .753-.315c.088.088.131.192.131.315v5.993a.412.412 0 0 1-.13.31c-.088.084-.193.126-.316.126s-.227-.042-.31-.126-.128-.187-.128-.31v-2.583h-3.68v2.583a.413.413 0 0 1-.131.31c-.087.084-.193.126-.316.126s-.226-.042-.31-.126zM330.797 351.786a2.172 2.172 0 0 1-.869-.909c-.204-.391-.307-.84-.307-1.344s.103-.953.307-1.345c.203-.392.493-.694.87-.908.374-.214.812-.32 1.31-.32.492 0 .926.106 1.302.32.375.214.666.516.874.908.207.392.31.84.31 1.345s-.103.953-.31 1.344a2.22 2.22 0 0 1-.874.909c-.376.214-.81.32-1.302.32-.498 0-.936-.106-1.31-.32zm2.073-.67c.243-.123.444-.318.602-.583.16-.266.238-.602.238-1.01 0-.401-.079-.734-.238-1a1.451 1.451 0 0 0-.602-.578 1.7 1.7 0 0 0-.762-.18c-.272 0-.53.06-.772.18-.243.12-.442.312-.597.578s-.234.599-.234 1c0 .408.078.744.234 1.01s.354.46.597.583a1.682 1.682 0 0 0 1.534 0zM335.953 351.931a.422.422 0 0 1-.126-.31v-4.166c0-.123.042-.229.126-.316.084-.088.188-.132.311-.132s.229.044.315.132a.428.428 0 0 1 .132.316v.398c.18-.26.4-.473.656-.642.255-.168.586-.252.995-.252.362 0 .673.097.932.291s.444.431.554.71c.401-.668.996-1 1.786-1 .363 0 .666.09.908.271.243.182.423.414.54.7s.174.582.174.893v2.797a.441.441 0 0 1-.446.437c-.123 0-.228-.043-.312-.127s-.126-.187-.126-.31v-2.622c0-.421-.074-.73-.223-.928-.149-.197-.405-.296-.767-.296-.33 0-.603.086-.82.258a2.46 2.46 0 0 0-.578.675v2.913a.442.442 0 0 1-.447.437c-.124 0-.227-.043-.311-.127s-.126-.187-.126-.31v-2.622c0-.421-.074-.73-.224-.928-.148-.197-.404-.296-.766-.296-.331 0-.605.086-.822.258-.216.17-.409.396-.577.675v2.913a.413.413 0 0 1-.132.31c-.086.084-.192.126-.315.126s-.227-.042-.31-.126zM345.107 351.431c-.445-.45-.666-1.083-.666-1.898 0-.46.084-.884.253-1.273.168-.388.426-.702.776-.941.35-.24.78-.36 1.292-.36.48 0 .894.112 1.243.335.35.223.615.52.796.894.182.372.273.778.273 1.219a.434.434 0 0 1-.122.31.432.432 0 0 1-.326.126h-3.292c.052.453.221.807.505 1.059.285.253.684.379 1.195.379.272 0 .51-.026.713-.078.205-.052.404-.126.598-.223a.38.38 0 0 1 .175-.04c.103 0 .194.036.271.107a.353.353 0 0 1 .118.273c0 .142-.084.262-.253.36-.252.142-.502.248-.748.32s-.563.106-.952.106c-.79 0-1.406-.225-1.85-.675zm3.093-2.306c-.02-.317-.103-.583-.248-.796s-.326-.371-.54-.471c-.212-.1-.43-.151-.65-.151s-.436.05-.65.15c-.214.1-.392.258-.535.472s-.223.48-.243.796h2.866z" class="colorfff svgShape"/><path fill="#d1dcf8" d="M315.589 199.259c.16.223-.122.616-.797 1.246-.703.668-1.892 1.635-3.387 3.186-3.137 2.885-5.805 7.02-7.035 11.824-1.011 3.121-1.357 5.594-1.69 7.315-.36 1.66-.147 2.253-.593 2.815-.226.25-.703.451-1.298.322-.61-.12-1.22-.664-1.567-1.538-.67-1.668-1.07-4.44-.11-8.406 1.895-6.043 5.636-11.008 9.699-14.228 2.13-1.51 3.85-2.204 4.962-2.515 1.053-.283 1.654-.246 1.816-.021z" class="colord1dcf8 svgShape"/><path fill="#f3f6fd" d="M333.817 249.976c0 17.906-14.532 32.438-32.453 32.438a32.152 32.152 0 0 1-18.582-5.864c-8.383-5.863-13.857-15.581-13.857-26.574 0-17.922 14.532-32.455 32.439-32.455 1.544 0 3.06.105 4.544.315 15.777 2.205 27.91 15.763 27.91 32.14z" class="colorf3f6fd svgShape"/><path fill="#f3f6fd" d="M325.238 255.789c-2.194 3.458-6.486 5.724-10.469 4.794-4.15-.954-7.035-4.936-11.136-6.082-.859-.238-4.436-.238-5.27 0-4.102 1.146-7.011 5.128-11.16 6.082-3.983.93-8.276-1.336-10.445-4.794-2.17-3.482-2.48-7.87-1.622-11.875.668-3.196 2.074-6.272 4.364-8.585 2.29-2.29 5.556-3.744 8.8-3.433 2.36.214 4.554 1.31 6.843 1.93.966.263 2.006.288 3.002.42 2.03.27 3.914.252 5.693 0 .997-.14 2.035-.157 2.99-.42 2.314-.62 4.507-1.716 6.868-1.93 3.243-.311 6.486 1.143 8.8 3.433 2.289 2.313 3.672 5.39 4.363 8.585.835 4.006.549 8.393-1.62 11.875z" class="colorf3f6fd svgShape"/><path fill="#003567" d="M323.965 254.999c-1.635 2.565-4.59 4.29-7.35 4.29-.509 0-1.019-.06-1.499-.166-1.86-.42-3.479-1.604-5.219-2.834-1.77-1.29-3.614-2.61-5.864-3.24-.735-.194-2.22-.224-3.044-.224s-2.325.03-3.045.24c-2.234.614-4.079 1.934-5.863 3.224-1.725 1.23-3.375 2.415-5.22 2.834-.48.106-.99.166-1.5.166-1.829 0-3.733-.75-5.278-1.995a9.646 9.646 0 0 1-2.055-2.295c-1.785-2.88-2.295-6.703-1.425-10.767.66-3.195 2.04-5.895 3.96-7.844 1.905-1.905 4.469-3.03 6.853-3.03.255 0 .495 0 .735.03 1.365.12 2.7.586 4.11 1.08.824.285 1.65.585 2.49.81.779.21 1.559.285 2.293.36l.9.09c1.05.15 2.085.21 3.09.21 1.02 0 2.025-.06 3.014-.21.315-.045.63-.075.945-.105.72-.075 1.47-.135 2.235-.345.84-.24 1.694-.525 2.52-.81 1.409-.494 2.744-.96 4.078-1.08.255-.03.495-.03.75-.03 2.04 0 4.14.795 5.924 2.205.33.255.645.525.945.825 1.874 1.92 3.254 4.634 3.944 7.844.855 4.094.345 7.918-1.424 10.767z" class="color003567 svgShape"/><path fill="#022e4f" d="M323.965 254.999c-1.635 2.565-4.59 4.29-7.35 4.29-.509 0-1.019-.06-1.499-.166-1.86-.42-3.479-1.604-5.219-2.834-1.77-1.29-3.614-2.61-5.864-3.24-.735-.194-2.22-.224-3.044-.224s-2.325.03-3.045.24c-2.234.614-4.079 1.934-5.863 3.224-1.725 1.23-3.375 2.415-5.22 2.834-.48.106-.99.166-1.5.166-1.829 0-3.733-.75-5.278-1.995 1.65-3.464 4.079-6.464 7.408-8.308 3.915-2.16 8.549-2.46 13.003-2.625 4.47-.18 9.073-.3 13.122-2.175 3.495-1.619 6.464-4.919 6.884-8.623.33.255.645.525.945.825 1.874 1.92 3.254 4.634 3.944 7.844.855 4.094.345 7.918-1.424 10.767z" class="color022e4f svgShape"/><circle cx="287.254" cy="245.724" r="5.027" fill="#64d3ff" class="color64d3ff svgShape"/><circle cx="287.254" cy="245.724" r="2.416" fill="#42c1f4" class="color42c1f4 svgShape"/><circle cx="286.014" cy="243.651" r="1.593" fill="#ffffff" class="colorfff svgShape"/><circle cx="288.417" cy="246.699" r=".656" fill="#ffffff" class="colorfff svgShape"/><circle cx="313.217" cy="245.724" r="5.027" fill="#64d3ff" class="color64d3ff svgShape"/><circle cx="313.217" cy="245.724" r="2.416" fill="#42c1f4" class="color42c1f4 svgShape"/><circle cx="311.978" cy="243.651" r="1.593" fill="#ffffff" class="colorfff svgShape"/><circle cx="314.381" cy="246.699" r=".656" fill="#ffffff" class="colorfff svgShape"/><path fill="#ffffff" d="M293.79 260.792c.252 7.339 3.376 13.143 7.202 13.143 3.827 0 6.95-5.804 7.204-13.143-4.259 3.875-9.107 3.757-14.407 0z" class="colorfff svgShape"/><circle cx="314.814" cy="199.336" r="2.803" fill="#e4ecf9" class="colore4ecf9 svgShape"/></svg>